<svg width="121" height="60" viewBox="0 0 121 60" fill="none" xmlns="http://www.w3.org/2000/svg">
<path fill-rule="evenodd" clip-rule="evenodd" d="M16.1322 42.6159V33.7699L22.1682 35.8269V44.7829L16.1322 42.6159ZM29.3102 42.6159V33.7699L23.2742 35.8269V44.7829L29.3102 42.6159ZM22.8602 31.3879L28.5242 33.2139L22.8602 35.1369L16.7602 33.1069L22.8602 31.3879ZM8.94519 30.2579V21.3999L14.9812 23.4559V32.4119L8.94519 30.2579ZM22.1252 30.2569V21.3999L16.0892 23.4559V32.4119L22.1252 30.2569ZM15.6752 19.0269L21.3392 20.8539L15.6752 22.7769L9.57519 20.7469L15.6752 19.0269ZM23.0302 30.2569V21.3999L29.0662 23.4559V32.4119L23.0302 30.2569ZM36.2082 30.2569V21.3999L30.1722 23.4559V32.4119L36.2082 30.2569ZM29.7682 19.0269L35.4322 20.8539L29.7682 22.7769L23.6682 20.7469L29.7682 19.0269ZM30.2262 17.8969V9.04992L36.2622 11.1069V20.0619L30.2262 17.8969ZM43.3962 17.8959V9.04992L37.3602 11.1069V20.0619L43.3962 17.8959ZM36.9452 6.66992L42.6092 8.49592L36.9452 10.4189L30.8452 8.38892L36.9452 6.66992ZM44.3002 17.8969V9.04992L50.3362 11.1069V20.0619L44.3002 17.8969ZM57.4682 17.8969V9.04992L51.4322 11.1069V20.0619L57.4682 17.8969ZM51.0282 6.66992L56.6922 8.49592L51.0282 10.4189L44.9282 8.38892L51.0282 6.66992Z" fill="#42389E"/>
<path d="M47.2662 39.0178L45.2382 46.0618H44.3582L42.7582 40.8298L41.3102 46.0618H40.4122L38.3052 39.0178H39.4052L40.9402 44.2678L42.4002 39.0178H43.2042L44.7922 44.2838L46.3702 39.0178H47.2552H47.2662ZM52.8742 43.9598L53.8942 44.1598C53.7069 44.7642 53.3251 45.2898 52.8082 45.6548C52.2682 46.0498 51.6362 46.2468 50.9082 46.2468C49.9482 46.2468 49.1702 45.9088 48.5762 45.2308C47.9822 44.5528 47.6762 43.6658 47.6762 42.5678C47.6762 41.4458 47.9762 40.5398 48.6022 39.8478C48.8891 39.514 49.2464 39.2478 49.6484 39.0685C50.0504 38.8892 50.4871 38.8012 50.9272 38.8108C51.8472 38.8108 52.5852 39.1288 53.1452 39.7658C53.7052 40.4028 53.9912 41.3538 54.0052 42.6218H48.8922C48.8922 43.6868 49.1142 44.4058 49.5602 44.7778C50.0062 45.1498 50.4762 45.3358 50.9722 45.3358C51.8672 45.3358 52.4982 44.8738 52.8642 43.9488L52.8742 43.9598ZM52.8142 41.8158C52.8042 41.4208 52.7402 41.0698 52.6192 40.7628C52.4982 40.4558 52.2942 40.1948 52.0062 39.9788C51.7182 39.7628 51.3732 39.6548 50.9692 39.6548C50.7108 39.6506 50.4545 39.7006 50.2166 39.8015C49.9788 39.9025 49.7647 40.0521 49.5882 40.2408C49.2102 40.6408 48.9882 41.1558 48.9512 41.8158H52.8132H52.8142ZM55.9842 46.0618H55.4572V36.5618H56.5542V40.2018C57.0542 39.2888 57.7542 38.8318 58.6272 38.8318C59.4332 38.8318 60.1092 39.1518 60.6542 39.7888C61.1992 40.4258 61.4712 41.3528 61.4712 42.5668C61.4712 43.6138 61.2012 44.4918 60.6672 45.2018C60.1332 45.9118 59.4332 46.2668 58.5752 46.2668C57.6192 46.2668 56.8752 45.8128 56.3752 44.9068L55.9752 46.0718L55.9842 46.0618ZM56.5542 43.3018C56.6042 44.0248 56.8272 44.5498 57.2192 44.8758C57.6112 45.2018 58.0262 45.3758 58.4632 45.3758C59.0202 45.3758 59.4692 45.1338 59.8112 44.6498C60.1532 44.1658 60.3232 43.5028 60.3232 42.6618C60.3232 41.7548 60.1582 41.0418 59.8292 40.5218C59.5002 40.0018 59.0422 39.7438 58.4572 39.7438C57.9972 39.7438 57.5832 39.9288 57.2132 40.2978C56.8432 40.6668 56.6132 41.1448 56.5552 41.7298V43.2998L56.5542 43.3018ZM64.2672 44.2358L65.3132 44.0198C65.5452 44.9048 66.2812 45.3468 67.5172 45.3468C67.9722 45.3468 68.3592 45.2448 68.6752 45.0408C68.8242 44.9525 68.9469 44.8259 69.0304 44.6741C69.1139 44.5223 69.1553 44.351 69.1502 44.1778C69.1502 43.6278 68.7472 43.2778 67.9422 43.1278L66.4592 42.8458C65.8792 42.7338 65.4162 42.5158 65.0722 42.1898C64.7282 41.8638 64.5572 41.4348 64.5572 40.8898C64.5572 40.2898 64.7912 39.8058 65.2612 39.4078C65.7312 39.0098 66.3612 38.8118 67.1562 38.8118C68.6842 38.8118 69.6262 39.4088 69.9862 40.6038L68.9822 40.8198C68.6942 40.0898 68.1022 39.7228 67.2072 39.7228C66.7612 39.7228 66.3952 39.8228 66.1102 39.9968C65.9767 40.0743 65.8664 40.1863 65.7911 40.3211C65.7158 40.4559 65.6782 40.6085 65.6822 40.7628C65.6822 41.2808 66.0472 41.6058 66.7762 41.7408L68.1462 41.9928C69.5822 42.2528 70.2992 42.9498 70.2992 44.0808C70.3054 44.3881 70.2355 44.6921 70.0955 44.9657C69.9556 45.2394 69.75 45.474 69.4972 45.6488C68.9632 46.0468 68.2522 46.2468 67.3632 46.2468C65.6932 46.2468 64.6632 45.5728 64.2672 44.2268V44.2358ZM76.1332 43.9598L77.1532 44.1598C76.9682 44.7618 76.6062 45.2598 76.0672 45.6548C75.5282 46.0498 74.8952 46.2468 74.1672 46.2468C73.2072 46.2468 72.4292 45.9088 71.8352 45.2308C71.2412 44.5528 70.9352 43.6658 70.9352 42.5678C70.9352 41.4458 71.2432 40.5398 71.8612 39.8478C72.1481 39.514 72.5054 39.2478 72.9074 39.0685C73.3094 38.8892 73.7461 38.8012 74.1862 38.8108C75.1042 38.8108 75.8442 39.1288 76.4032 39.7658C76.9622 40.4028 77.2492 41.3538 77.2632 42.6218H72.1512C72.1512 43.6868 72.3732 44.4058 72.8182 44.7778C73.2632 45.1498 73.7342 45.3358 74.2312 45.3358C75.1262 45.3358 75.7572 44.8738 76.1232 43.9488L76.1332 43.9598ZM76.0732 41.8158C76.0632 41.4208 75.9982 41.0698 75.8782 40.7628C75.7582 40.4558 75.5542 40.1948 75.2662 39.9788C74.9782 39.7628 74.6332 39.6548 74.2292 39.6548C73.9707 39.6505 73.7141 39.7004 73.4761 39.8013C73.238 39.9023 73.0238 40.052 72.8472 40.2408C72.4692 40.6408 72.2472 41.1558 72.2112 41.8158H76.0732ZM79.5502 46.0618H78.4532V39.0178H79.4132V40.6598C79.7532 39.8898 80.0932 39.3918 80.4332 39.1648C80.7732 38.9378 81.1332 38.8228 81.4812 38.8228C81.6255 38.8248 81.7696 38.8335 81.9132 38.8488V39.8948H81.6912C81.0882 39.8948 80.5872 40.1188 80.1882 40.5668C79.7892 41.0148 79.5762 41.6038 79.5482 42.3328V46.0628L79.5502 46.0618ZM88.7302 39.0178L86.2982 46.0618H85.1612L82.6482 39.0178H83.8622L85.8172 44.7428L87.7572 39.0178H88.7302ZM90.7802 36.5498V37.7668H89.6082V36.5498H90.7822H90.7802ZM90.7542 39.0168V46.0608H89.6682V39.0168H90.7652H90.7542ZM96.4882 43.5948L97.4752 43.7688C97.3352 44.5468 97.0272 45.1558 96.5492 45.5968C96.0712 46.0378 95.4742 46.2568 94.7492 46.2568C93.7792 46.2568 93.0492 45.8968 92.5292 45.1818C92.0092 44.4668 91.7662 43.5818 91.7662 42.5568C91.7662 41.4868 92.0342 40.5968 92.5712 39.8868C93.1082 39.1768 93.8382 38.8218 94.7712 38.8218C95.5372 38.8218 96.1512 39.0518 96.6142 39.5218C97.0772 39.9918 97.3642 40.5718 97.4742 41.2998L96.4872 41.4878C96.3012 40.3248 95.7402 39.7438 94.8022 39.7438C94.5222 39.7344 94.245 39.801 93.9999 39.9366C93.7548 40.0722 93.551 40.2717 93.4102 40.5138C93.0852 41.0268 92.9222 41.6918 92.9222 42.5098C92.9222 43.4098 93.0822 44.1098 93.4062 44.6098C93.5455 44.8448 93.7452 45.0382 93.9845 45.1699C94.2239 45.3016 94.4941 45.3668 94.7672 45.3588C95.6722 45.3588 96.2452 44.7748 96.4872 43.6058L96.4882 43.5948ZM103.664 43.9598L104.684 44.1598C104.497 44.7642 104.115 45.2898 103.598 45.6548C103.058 46.0498 102.426 46.2468 101.698 46.2468C100.738 46.2468 99.9582 45.9088 99.3652 45.2308C98.7722 44.5528 98.4652 43.6658 98.4652 42.5678C98.4652 41.4458 98.7652 40.5398 99.3912 39.8478C99.6781 39.514 100.035 39.2478 100.437 39.0685C100.839 38.8892 101.276 38.8012 101.716 38.8108C102.636 38.8108 103.376 39.1288 103.934 39.7658C104.492 40.4028 104.78 41.3538 104.794 42.6218H99.6822C99.6822 43.6868 99.9042 44.4058 100.35 44.7778C100.796 45.1498 101.266 45.3358 101.762 45.3358C102.657 45.3358 103.288 44.8738 103.654 43.9488L103.664 43.9598ZM103.604 41.8158C103.594 41.4208 103.53 41.0698 103.409 40.7628C103.283 40.4489 103.071 40.1771 102.797 39.9788C102.509 39.7628 102.164 39.6548 101.76 39.6548C101.502 39.6501 101.246 39.6999 101.008 39.8009C100.77 39.9018 100.556 40.0517 100.38 40.2408C100.004 40.6408 99.7802 41.1558 99.7432 41.8158H103.605H103.604ZM105.424 44.2358L106.47 44.0198C106.702 44.9048 107.437 45.3468 108.674 45.3468C109.129 45.3468 109.514 45.2448 109.832 45.0408C109.981 44.9524 110.103 44.8257 110.187 44.6739C110.27 44.5222 110.311 44.3509 110.306 44.1778C110.306 43.6278 109.903 43.2778 109.099 43.1278L107.616 42.8458C107.036 42.7338 106.573 42.5158 106.229 42.1898C105.885 41.8638 105.714 41.4348 105.714 40.8898C105.714 40.2898 105.948 39.8058 106.418 39.4078C106.888 39.0098 107.518 38.8118 108.313 38.8118C109.841 38.8118 110.783 39.4088 111.143 40.6038L110.139 40.8198C109.851 40.0898 109.259 39.7228 108.364 39.7228C107.918 39.7228 107.564 39.8228 107.267 39.9968C107.134 40.0743 107.023 40.1863 106.948 40.3211C106.873 40.4559 106.835 40.6085 106.839 40.7628C106.839 41.2808 107.204 41.6058 107.933 41.7408L109.303 41.9928C110.739 42.2528 111.456 42.9498 111.456 44.0808C111.462 44.3881 111.392 44.6921 111.253 44.9657C111.113 45.2394 110.907 45.474 110.654 45.6488C110.12 46.0468 109.409 46.2468 108.52 46.2468C106.852 46.2468 105.82 45.5728 105.425 44.2268L105.424 44.2358Z" fill="#42389E" stroke="#42389E" stroke-width="0.213"/>
<path fill-rule="evenodd" clip-rule="evenodd" d="M80.6882 23.9638V22.2718C80.6868 22.2149 80.697 22.1584 80.7181 22.1056C80.7392 22.0528 80.7709 22.0049 80.8111 21.9647C80.8513 21.9245 80.8992 21.8928 80.952 21.8717C81.0048 21.8506 81.0613 21.8404 81.1182 21.8418H88.7012C88.9432 21.8418 89.1382 22.0178 89.1392 22.2688V23.7188C89.1372 23.9618 88.9322 24.2788 88.5692 24.7838L84.6422 30.3918C86.1002 30.3578 87.6422 30.5758 88.9672 31.3218C89.2672 31.4898 89.3452 31.7378 89.3692 31.9818V33.7868C89.3692 34.0368 89.0972 34.3238 88.8112 34.1738C86.4772 32.9508 83.3812 32.8168 80.7992 34.1878C80.5352 34.3278 80.2592 34.0448 80.2592 33.7958V32.0798C80.2592 31.8048 80.2642 31.3358 80.5412 30.9168L85.0912 24.3868H81.1282C81.071 24.3894 81.0139 24.3802 80.9604 24.36C80.9069 24.3397 80.8581 24.3088 80.817 24.269C80.7759 24.2292 80.7434 24.1814 80.7214 24.1286C80.6994 24.0757 80.6884 24.019 80.6892 23.9618L80.6882 23.9638ZM53.5512 34.5318H51.2442C51.0242 34.5178 50.8492 34.3518 50.8322 34.1318L50.8332 22.2918C50.8332 22.0548 51.0332 21.8658 51.2782 21.8658L53.4262 21.8648C53.6512 21.8768 53.8312 22.0468 53.8462 22.2628V23.8088H53.8892C54.4492 22.3138 55.5042 21.6158 56.9252 21.6158C58.3682 21.6158 59.2722 22.3138 59.9192 23.8088C60.4792 22.3138 61.7492 21.6158 63.1062 21.6158C64.0762 21.6158 65.1302 22.0158 65.7762 22.9118C66.5082 23.9078 66.3582 25.3538 66.3582 26.6248L66.3562 34.0968C66.3562 34.3338 66.1562 34.5228 65.9112 34.5228H63.6082C63.3782 34.5078 63.1942 34.3248 63.1942 34.0978V27.8298C63.1942 27.3298 63.2372 26.0858 63.1292 25.6118C62.9572 24.8148 62.4292 24.5898 61.7732 24.5898C61.2132 24.5898 60.6312 24.9638 60.3932 25.5618C60.1552 26.1598 60.1782 27.1568 60.1782 27.8298V34.1058C60.1782 34.3428 59.9782 34.5318 59.7332 34.5318H57.4282C57.1962 34.5168 57.0142 34.3338 57.0142 34.1068L57.0122 27.8298C57.0122 26.5098 57.2272 24.5658 55.5922 24.5658C53.9342 24.5658 53.9982 26.4588 53.9982 27.8298V34.1058C53.9982 34.3428 53.7982 34.5318 53.5532 34.5318H53.5512ZM94.7112 21.6248C98.1082 21.6248 99.9452 24.5648 99.9452 28.3028C99.9452 31.9158 97.9152 34.7808 94.7112 34.7808C91.3782 34.7808 89.5612 31.8408 89.5612 28.1778C89.5612 24.4908 91.3992 21.6248 94.7112 21.6248ZM94.7332 24.3468C93.0452 24.3468 92.9382 26.6638 92.9382 28.1088C92.9382 29.5538 92.9182 32.3388 94.7122 32.3388C96.4862 32.3388 96.5722 30.1518 96.5722 28.6318C96.5722 27.6358 96.5302 26.4388 96.2322 25.4918C95.9752 24.6698 95.4622 24.3458 94.7362 24.3458L94.7332 24.3468ZM104.861 34.5318H102.563C102.333 34.5168 102.149 34.3338 102.149 34.1068L102.145 22.2618C102.165 22.0448 102.345 21.8758 102.588 21.8758L104.728 21.8748C104.823 21.8784 104.915 21.9126 104.988 21.9725C105.062 22.0324 105.115 22.1145 105.138 22.2068V24.0068H105.182C105.828 22.3868 106.732 21.6148 108.326 21.6148C109.359 21.6148 110.372 21.9888 111.018 23.0098C111.621 23.9568 111.621 25.5498 111.621 26.6978V34.1478C111.595 34.3478 111.407 34.5208 111.179 34.5208H108.866C108.653 34.5068 108.481 34.3508 108.466 34.1478V27.7178C108.466 26.4228 108.616 24.5178 107.023 24.5178C106.463 24.5178 105.946 24.8918 105.688 25.4648C105.365 26.1878 105.321 26.9098 105.321 27.7078V34.0838C105.317 34.3208 105.118 34.5098 104.871 34.5098L104.861 34.5318ZM74.9062 28.8768C74.9062 29.7768 74.9282 30.5248 74.4742 31.3238C74.1072 31.9738 73.5242 32.3738 72.8772 32.3738C71.9922 32.3738 71.4742 31.6998 71.4742 30.7008C71.4742 28.7368 73.2372 28.3788 74.9042 28.3788V28.8788L74.9062 28.8768ZM77.2322 34.5018C77.0792 34.6388 76.8592 34.6478 76.6872 34.5558C75.9212 33.9188 75.7842 33.6258 75.3652 33.0178C74.0992 34.3178 73.2022 34.6948 71.5622 34.6948C69.6202 34.6948 68.1092 33.4948 68.1092 31.0988C68.1092 29.2258 69.1232 27.9528 70.5692 27.3288C71.8212 26.7788 73.5692 26.6788 74.9072 26.5288V26.2288C74.9072 25.6788 74.9502 25.0308 74.6272 24.5558C74.3472 24.1308 73.8072 23.9558 73.3322 23.9558C72.4522 23.9558 71.6702 24.4058 71.4772 25.3418C71.4372 25.5498 71.2852 25.7548 71.0772 25.7658L68.8412 25.5238C68.6412 25.4808 68.4412 25.3298 68.4972 25.0418C69.0112 22.3288 71.4612 21.5098 73.6572 21.5098C74.7792 21.5098 76.2572 21.8098 77.1312 22.6598C78.2542 23.7098 78.1452 25.1068 78.1452 26.6298V30.2238C78.1452 31.3038 78.5952 31.7788 79.0152 32.3618C79.1622 32.5618 79.1952 32.8218 79.0072 32.9748L77.2372 34.5068L77.2312 34.5008L77.2322 34.5018ZM44.9252 28.8768C44.9252 29.7768 44.9472 30.5248 44.4932 31.3238C44.1262 31.9738 43.5432 32.3738 42.8962 32.3738C42.0112 32.3738 41.4932 31.6998 41.4932 30.7008C41.4932 28.7368 43.2552 28.3788 44.9232 28.3788V28.8788L44.9252 28.8768ZM47.2512 34.5018C47.0982 34.6388 46.8782 34.6478 46.7062 34.5558C45.9402 33.9188 45.8022 33.6258 45.3842 33.0178C44.1182 34.3178 43.2212 34.6948 41.5812 34.6948C39.6392 34.6948 38.1282 33.4948 38.1282 31.0988C38.1282 29.2258 39.1422 27.9528 40.5882 27.3288C41.8402 26.7788 43.5882 26.6788 44.9262 26.5288V26.2288C44.9262 25.6788 44.9692 25.0308 44.6462 24.5558C44.3662 24.1308 43.8262 23.9558 43.3512 23.9558C42.4712 23.9558 41.6892 24.4058 41.4962 25.3418C41.4562 25.5498 41.2962 25.7548 41.0962 25.7658L38.8602 25.5238C38.6602 25.4808 38.4602 25.3298 38.5162 25.0418C39.0292 22.3288 41.4792 21.5098 43.6762 21.5098C44.7982 21.5098 46.2762 21.8098 47.1512 22.6598C48.2732 23.7098 48.1652 25.1068 48.1652 26.6298V30.2238C48.1652 31.3038 48.6152 31.7788 49.0352 32.3618C49.1822 32.5618 49.2152 32.8218 49.0282 32.9748L47.2682 34.5068L47.2622 34.5008L47.2512 34.5018Z" fill="#42389E"/>
</svg>
