<svg width="121" height="60" viewBox="0 0 121 60" fill="none" xmlns="http://www.w3.org/2000/svg">
<path d="M61.1075 29.3988H59.3154V22.4021C59.3063 21.7099 59.3324 21.0175 59.3933 20.3278C59.3353 20.6733 59.23 21.0092 59.0804 21.326L55.7981 29.4638H54.5484L51.2608 21.4074L50.9479 20.3223C51.0258 20.7834 51.0258 21.4745 51.0258 22.4743V29.4801H49.306V18.6425H51.8847L54.7781 25.8652L55.2465 27.0952C55.3652 26.6475 55.5219 26.2107 55.7149 25.7896L58.6844 18.5669H61.1856L61.1075 29.3988ZM64.4677 20.0241C64.3231 20.0317 64.1785 20.0083 64.0437 19.9552C63.9089 19.9022 63.7871 19.8209 63.6864 19.7167C63.4766 19.5504 63.36 19.293 63.3735 19.0259C63.3438 18.7556 63.4636 18.4908 63.6864 18.3351C63.9093 18.1552 64.182 18.0479 64.4677 18.0277C64.6124 18.02 64.757 18.0435 64.8918 18.0966C65.0265 18.1496 65.1484 18.2309 65.249 18.3351C65.4589 18.5014 65.5754 18.7588 65.5619 19.0259C65.5917 19.2962 65.4719 19.561 65.249 19.7167C65.1484 19.8209 65.0265 19.9022 64.8918 19.9552C64.757 20.0083 64.6124 20.0317 64.4677 20.0241ZM65.3267 29.3988H63.5291V21.6389H65.3267V29.3988ZM73.3738 29.0935C72.748 29.4769 71.9669 29.6363 71.1078 29.6363C69.9359 29.6363 68.9973 29.2529 68.2938 28.5602C67.5904 27.8676 67.2088 26.9472 67.2088 25.7933C67.2088 24.4877 67.5994 23.4876 68.3807 22.7189C69.162 21.9502 70.1783 21.5668 71.5056 21.5668C72.1502 21.5669 72.788 21.6973 73.3809 21.9502V23.5598C72.8815 23.1885 72.2827 22.9745 71.6611 22.945C70.8824 22.945 70.2543 23.1747 69.7859 23.7135C69.3049 24.2618 69.053 24.974 69.0825 25.7028C69.0825 26.4713 69.3175 27.1619 69.7857 27.6234C70.2685 28.0847 70.9158 28.3335 71.5833 28.3142C72.2457 28.3055 72.8831 28.0604 73.3809 27.6234V29.0939L73.3738 29.0935ZM79.7034 23.3316C79.4201 23.1656 79.0946 23.0859 78.7643 23.1019C78.2215 23.1019 77.8252 23.3316 77.4351 23.7927C77.045 24.2538 76.8923 24.8777 76.8923 25.7133V29.4027H75.0947V21.6389H76.8923V23.2519C77.04 22.7585 77.3085 22.3098 77.6733 21.9463C78.0151 21.6378 78.4627 21.4726 78.923 21.4852C79.1662 21.4817 79.4069 21.5343 79.6265 21.6389L79.7034 23.3316ZM84.4677 29.6356C83.218 29.6356 82.2796 29.2522 81.5743 28.5595C80.8691 27.8669 80.4893 26.8687 80.4893 25.7193C80.4893 24.4137 80.8798 23.4136 81.6611 22.6449C82.4424 21.8762 83.4588 21.5599 84.7082 21.5599C85.9577 21.5599 86.8964 21.9433 87.6016 22.6449C88.3069 23.3465 88.609 24.3303 88.609 25.6359C88.642 26.7365 88.254 27.8082 87.524 28.6324C86.6506 29.3081 85.5718 29.6631 84.4677 29.6402V29.6356ZM84.5456 22.874C83.8427 22.874 83.296 23.1043 82.9056 23.5648C82.5151 24.0259 82.2798 24.7169 82.2798 25.5541C82.2798 26.3913 82.5148 27.0132 82.9056 27.4747C83.2964 27.9363 83.8447 28.1656 84.5456 28.1656C85.2465 28.1656 85.7953 27.9358 86.1856 27.4747C86.5759 27.0137 86.7285 26.3987 86.7285 25.4854C86.7285 24.6409 86.5727 23.9508 86.1856 23.4961C85.9669 23.2896 85.7092 23.1288 85.4275 23.0232C85.1459 22.9176 84.8459 22.8694 84.5454 22.8813L84.5456 22.874ZM89.8605 29.1691V27.5519C90.5637 28.013 91.2674 28.3204 92.0487 28.3204C93.142 28.3204 93.6887 28.013 93.6887 27.3982C93.6726 27.2347 93.6193 27.077 93.533 26.9372C93.44 26.7947 93.3028 26.6868 93.1424 26.6298C92.9677 26.5395 92.7862 26.4626 92.5996 26.4L91.8964 26.1703C91.6037 26.0572 91.317 25.9292 91.0374 25.7869C90.8154 25.6522 90.606 25.4979 90.4117 25.3258C90.2378 25.1521 90.1045 24.9422 90.0211 24.711C89.9245 24.466 89.8719 24.2058 89.8656 23.9425C89.8602 23.5955 89.9409 23.2525 90.1006 22.9443C90.2519 22.6423 90.4993 22.3993 90.804 22.2535C91.1169 22.0237 91.4298 21.9461 91.8203 21.7924C92.2051 21.7035 92.5975 21.6521 92.9922 21.6387C93.6569 21.6158 94.3198 21.7201 94.9453 21.9461V23.4853C94.3933 23.1107 93.7368 22.9207 93.07 22.9427C92.8584 22.9249 92.6454 22.9508 92.4443 23.0187C92.2885 23.0948 92.1314 23.0948 91.9759 23.1722C91.8368 23.2318 91.7253 23.3417 91.663 23.4796C91.6002 23.5971 91.5732 23.7304 91.5851 23.863C91.5726 24.0208 91.5992 24.1792 91.6627 24.3241C91.7247 24.4623 91.8364 24.572 91.9756 24.6315C92.1504 24.7218 92.3318 24.7987 92.5185 24.8612C92.7535 24.9373 92.909 25.0147 93.2217 25.091C93.5191 25.2512 93.8325 25.3797 94.1567 25.4744C94.4696 25.5505 94.6251 25.7818 94.8599 25.9355C95.0343 26.1259 95.191 26.3316 95.3283 26.5503C95.4245 26.8218 95.4771 27.1068 95.484 27.3948C95.484 27.7782 95.4062 28.1633 95.1712 28.393C94.9995 28.6809 94.7582 28.9209 94.4696 29.0912C94.1202 29.2724 93.7575 29.4265 93.3845 29.5523C92.2015 29.8509 90.9506 29.7142 89.8599 29.167L89.8605 29.1691ZM100.725 29.6356C99.4755 29.6356 98.5371 29.2522 97.8318 28.5595C97.1266 27.8669 96.7468 26.8687 96.7468 25.7193C96.7468 24.4137 97.1373 23.4136 97.9186 22.6449C98.6999 21.8762 99.7162 21.5599 100.966 21.5599C102.215 21.5599 103.154 21.9433 103.859 22.6449C104.564 23.3465 104.875 24.3358 104.875 25.6414C104.908 26.742 104.52 27.8137 103.79 28.6379C102.905 29.3037 101.824 29.6556 100.716 29.6379L100.725 29.6356ZM100.803 22.874C100.1 22.874 99.5535 23.1043 99.1631 23.5648C98.7725 24.0259 98.5373 24.7169 98.5373 25.5541C98.5373 26.3913 98.7723 27.0132 99.1631 27.4747C99.5538 27.9363 100.102 28.1656 100.803 28.1656C101.504 28.1656 102.053 27.9358 102.443 27.4747C102.833 27.0137 102.986 26.3987 102.986 25.4854C102.986 24.6409 102.83 23.9508 102.443 23.4961C102.225 23.2868 101.967 23.1234 101.685 23.0156C101.402 22.9078 101.101 22.8578 100.799 22.8685L100.803 22.874ZM111.033 19.4107C110.775 19.2543 110.477 19.1747 110.174 19.181C109.315 19.181 108.845 19.642 108.845 20.64V21.7166H110.643V23.1001H108.845V29.4819H107.055V23.0982H105.726V21.7147H107.055V20.4847C107.055 19.6402 107.29 19.0257 107.834 18.5641C108.261 18.2362 108.761 18.0157 109.291 17.9213C109.821 17.8268 110.366 17.8611 110.881 18.0213V19.4047H111.031L111.033 19.4107ZM116.195 29.3225C115.882 29.4757 115.414 29.5523 114.788 29.5523C113.226 29.5523 112.522 28.8614 112.522 27.4003V23.0224H111.193V21.6389H112.522V19.8706L114.32 19.4096V21.7152H116.195V23.0987H114.32V26.9468C114.295 27.2957 114.377 27.6439 114.555 27.945C114.71 28.1747 115.023 28.2524 115.413 28.2524C115.692 28.2563 115.964 28.1728 116.192 28.0137V29.3193L116.195 29.3225ZM60.2591 45.3562H58.2265L57.2102 42.5911H52.8339L51.8948 45.3581H49.864L54.0053 34.5238H56.0324L60.2591 45.3562ZM56.7418 41.1302L55.1796 36.8281C55.111 36.602 55.059 36.3711 55.0241 36.1373C54.9892 36.3711 54.9373 36.602 54.8686 36.8281L53.3839 41.1302H56.7418ZM67.379 38.3593L63.1582 43.9654H67.3774V45.3489H60.6501V44.6709L65.0282 38.9798H61.1222V37.5964H67.4516V38.3596L67.379 38.3593ZM75.8082 45.3562H74.0105V44.1285C73.778 44.5639 73.4271 44.9248 72.9984 45.1696C72.5697 45.4144 72.0806 45.533 71.5874 45.512C69.7121 45.512 68.7735 44.4359 68.7735 42.2081V37.5959H70.5711V42.0519C70.5711 43.4348 71.1178 44.1262 72.2111 44.1262C72.4586 44.1362 72.7054 44.093 72.9347 43.9993C73.164 43.9057 73.3705 43.7639 73.5403 43.5836C73.8914 43.1482 74.0829 42.6057 74.0829 42.0464V37.5959H75.8787L75.8082 45.3562ZM82.6852 39.287C82.4019 39.1209 82.0764 39.0412 81.7461 39.0573C81.2033 39.0573 80.807 39.287 80.4169 39.7481C80.0269 40.2092 79.8741 40.8331 79.8741 41.6687V45.3578H78.0765V37.5959H79.8741V39.2089C80.0218 38.7155 80.2903 38.2668 80.6551 37.9033C80.9937 37.5977 81.4339 37.4328 81.892 37.4422C82.1352 37.4387 82.3759 37.4913 82.5955 37.5959L82.6852 39.287ZM90.6549 41.9761H85.2641C85.2641 42.6669 85.4992 43.2817 85.9673 43.667C86.3579 44.0504 86.9836 44.2817 87.7649 44.2817C88.6132 44.3005 89.4425 44.0294 90.1159 43.5133V44.8967C89.4071 45.361 88.4668 45.5931 87.2949 45.5931C86.7891 45.61 86.2851 45.5224 85.8146 45.3358C85.3442 45.1491 84.9173 44.8673 84.5607 44.508C83.8575 43.8172 83.5444 42.8172 83.5444 41.5116C83.5074 40.4331 83.8973 39.3836 84.6294 38.5909C84.976 38.2141 85.3995 37.916 85.8712 37.717C86.3429 37.5179 86.8519 37.4225 87.3636 37.4372C88.4487 37.4372 89.2389 37.7446 89.8649 38.4354C90.4909 39.1262 90.7239 40.0484 90.7239 41.2756L90.6549 41.9761ZM88.9352 40.7461C88.9352 40.1313 88.7794 39.5939 88.4668 39.287C88.3174 39.1027 88.1259 38.9571 87.9083 38.8626C87.6908 38.7681 87.4537 38.7275 87.2171 38.7442C86.9696 38.7341 86.7228 38.7774 86.4935 38.871C86.2642 38.9646 86.0576 39.1064 85.8879 39.2868C85.4973 39.6702 85.345 40.1313 85.2621 40.7458L88.9352 40.7461Z" fill="#42389E"/>
<path fill-rule="evenodd" clip-rule="evenodd" d="M28.7993 19.0379L22.9722 30.7738L33.2338 42.6644L14.1926 44.826L43.7391 45.1352L28.7993 19.0379ZM27.6502 14.405L14.2721 25.6007L4.34106 42.3559L12.7947 41.5084L27.6502 14.405Z" fill="#42389E"/>
</svg>
