<svg width="121" height="60" viewBox="0 0 121 60" fill="none" xmlns="http://www.w3.org/2000/svg">
<path d="M25.2722 47.7231V40.7431C32.6622 40.7431 38.3972 33.4151 35.5602 25.6381C34.5202 22.7801 32.2122 20.4741 29.3342 19.4331C21.5572 16.6161 14.2292 22.3331 14.2292 29.7211H7.26819C7.26819 17.9401 18.6682 8.7561 31.0082 12.6141C36.3982 14.3081 40.7042 18.5941 42.3782 23.9841C46.2362 36.3341 37.0502 47.7231 25.2722 47.7231Z" fill="#42389E"/>
<path fill-rule="evenodd" clip-rule="evenodd" d="M25.2922 33.8223V40.7823H18.3322V33.8223H25.2922ZM18.3322 40.7823V46.1003H13.0042V40.7723L18.3322 40.7823ZM13.0042 40.7823H8.53418V36.3123H13.0042V40.7823Z" fill="#42389E"/>
<path d="M61.0222 13.867C59.4422 12.754 57.4222 12.215 55.1222 12.215H50.0952V28.195H55.1682C57.4662 28.195 59.4682 27.62 61.0682 26.435C61.9302 25.835 62.6122 24.963 63.1152 23.885C63.5822 22.808 63.8332 21.515 63.8332 20.115C63.8332 18.715 63.5832 17.458 63.1152 16.381C62.6122 15.304 61.9302 14.441 61.0322 13.867H61.0222ZM53.0502 14.907H54.6302C56.3902 14.907 57.8262 15.267 58.9302 15.947C60.1502 16.701 60.7602 18.102 60.7602 20.112C60.7602 22.195 60.1602 23.667 58.9302 24.457C57.8902 25.139 56.4522 25.497 54.6572 25.497H53.0412V14.9L53.0502 14.907ZM67.3062 12C66.8032 12 66.4082 12.18 66.0492 12.503C65.8858 12.6609 65.7568 12.8509 65.6702 13.061C65.5837 13.2711 65.5415 13.4968 65.5462 13.724C65.5462 14.227 65.7262 14.622 66.0492 14.981C66.3722 15.304 66.8032 15.484 67.3062 15.484C67.7735 15.4802 68.2223 15.3006 68.5632 14.981C68.8862 14.658 69.0662 14.227 69.0662 13.724C69.071 13.4968 69.0287 13.2711 68.9422 13.061C68.8556 12.8509 68.7266 12.6609 68.5632 12.503C68.2032 12.18 67.7632 12 67.3062 12ZM65.8682 16.92H68.7052V28.195H65.8682V16.92ZM79.0122 17.853C78.1502 17.099 77.2172 16.633 76.1752 16.633C74.5952 16.633 73.3022 17.173 72.2972 18.249C71.2922 19.289 70.7532 20.655 70.7532 22.307C70.7532 23.887 71.2562 25.252 72.2612 26.329C73.2662 27.369 74.5952 27.909 76.1392 27.909C77.2162 27.909 78.1862 27.622 78.9392 27.011V27.261C78.9392 28.195 78.6892 28.913 78.1852 29.416C77.6812 29.919 77.0002 30.17 76.1382 30.17C74.8452 30.17 74.0182 29.667 73.0142 28.303L71.0742 30.17L71.1102 30.242C71.5402 30.817 72.1502 31.392 73.0132 31.93C73.8392 32.47 74.9162 32.756 76.1732 32.756C77.8612 32.756 79.2252 32.253 80.2312 31.212C81.2372 30.171 81.7392 28.806 81.7392 27.118V16.884H78.9392V17.854L79.0122 17.853ZM78.2682 24.532C77.7652 25.107 77.1182 25.358 76.3282 25.358C75.5022 25.358 74.8922 25.071 74.3882 24.532C73.8852 23.957 73.6702 23.239 73.6702 22.332C73.6702 21.398 73.9202 20.68 74.3882 20.106C74.8562 19.532 75.5382 19.28 76.3282 19.28C77.1542 19.28 77.7642 19.567 78.2682 20.106C78.7712 20.681 79.0222 21.436 79.0222 22.332C79.0222 23.228 78.7722 23.948 78.2682 24.532ZM84.2182 16.92H87.0552V28.195H84.2182V16.92ZM85.6552 12C85.1522 12 84.7572 12.18 84.3982 12.503C84.2348 12.6609 84.1058 12.8509 84.0192 13.061C83.9327 13.2711 83.8905 13.4968 83.8952 13.724C83.8952 14.227 84.0752 14.622 84.3982 14.981C84.7212 15.304 85.1522 15.484 85.6552 15.484C86.1225 15.4802 86.5713 15.3006 86.9122 14.981C87.2352 14.658 87.4152 14.227 87.4152 13.724C87.42 13.4968 87.3778 13.2711 87.2912 13.061C87.2046 12.8509 87.0756 12.6609 86.9122 12.503C86.5522 12.18 86.1582 12 85.6552 12ZM93.2682 13.867H90.4682V16.919H88.8522V19.504H90.4682V24.172C90.4682 25.644 90.7552 26.686 91.3302 27.296C91.9052 27.906 92.9462 28.194 94.3822 28.194L95.7472 28.158H95.8912V25.573L94.9212 25.609C94.2392 25.609 93.8082 25.501 93.5912 25.249C93.3742 24.997 93.2682 24.496 93.2682 23.742V19.47H95.9252V16.885H93.2682V13.87V13.867ZM109.211 12.18H112.048V28.195H109.211V12.18Z" fill="#42389E"/>
<path d="M105.656 17.78C104.794 17.062 103.609 16.667 102.136 16.667C101.202 16.667 100.306 16.882 99.5163 17.267C98.7623 17.627 98.0442 18.272 97.5762 19.062L97.6123 19.098L99.4423 20.822C100.196 19.637 101.022 19.206 102.135 19.206C102.735 19.206 103.212 19.35 103.607 19.673C103.967 19.996 104.182 20.391 104.182 20.893V21.433C103.464 21.218 102.782 21.11 102.099 21.11C100.699 21.11 99.5492 21.433 98.6992 22.08C97.8492 22.727 97.4062 23.696 97.4062 24.917C97.4062 25.994 97.7662 26.82 98.5192 27.467C99.2732 28.067 100.171 28.401 101.249 28.401C102.327 28.401 103.332 27.971 104.265 27.216V28.15H107.065V20.896C106.957 19.566 106.525 18.49 105.665 17.772L105.656 17.78ZM100.629 23.884C100.952 23.669 101.429 23.561 101.994 23.561C102.676 23.561 103.394 23.705 104.149 23.956V25.069C103.549 25.644 102.713 25.931 101.707 25.931C101.204 25.931 100.845 25.823 100.557 25.608C100.432 25.5106 100.33 25.3852 100.262 25.2418C100.193 25.0984 100.159 24.9409 100.162 24.782C100.152 24.6041 100.19 24.4268 100.272 24.2688C100.354 24.1108 100.478 23.9778 100.629 23.884Z" fill="#42389E"/>
<path d="M75.4401 43.7003C74.9371 44.2753 74.4001 44.7773 74.0041 45.0303C73.6081 45.2833 73.1061 45.4253 72.5321 45.4253C71.7061 45.4253 71.0241 45.1383 70.4851 44.4913C69.9451 43.8913 69.6591 43.0553 69.6591 42.1213C69.6591 41.1513 69.9461 40.3613 70.4851 39.7513C71.0241 39.1413 71.7051 38.8173 72.5321 38.8173C73.4301 38.8173 74.3991 39.3923 75.2251 40.3613L77.0921 38.5663C75.8721 36.9863 74.3271 36.2323 72.4601 36.2323C70.9161 36.2323 69.5601 36.8073 68.4381 37.9203C67.3161 39.0333 66.7861 40.4343 66.7861 42.1203C66.7861 43.8063 67.3611 45.2083 68.4381 46.3203C69.5511 47.4353 70.8781 48.0203 72.4581 48.0203C74.5051 48.0203 76.1581 47.1223 77.3061 45.5063L75.4381 43.7003H75.4401ZM87.1101 38.0273C86.7151 37.4523 86.1761 37.0223 85.4941 36.6973C84.8121 36.3723 84.0221 36.1943 83.1601 36.1943C81.5801 36.1943 80.2871 36.7693 79.3181 37.9183C78.3841 39.0683 77.8821 40.4683 77.8821 42.1553C77.8821 43.8793 78.4221 45.2793 79.4261 46.3553C80.4661 47.4323 81.8321 47.9713 83.5201 47.9713C85.4231 47.9713 87.0031 47.1713 88.1881 45.6733L88.2601 45.6013L86.3931 43.8063C86.2131 44.0213 85.9631 44.2363 85.7471 44.4523C85.4601 44.7023 85.2071 44.9193 84.9211 45.0523C84.4749 45.2726 83.9827 45.3833 83.4851 45.3753C82.6851 45.3753 82.0491 45.1603 81.5451 44.6933C81.0781 44.2633 80.7911 43.6883 80.7191 42.9693H88.2241L88.2601 41.9293C88.2601 41.2113 88.1521 40.4933 87.9731 39.8463C87.7941 39.1993 87.5061 38.5893 87.1111 38.0163L87.1101 38.0273ZM80.8981 40.6843C81.0421 40.1443 81.2931 39.6793 81.6521 39.3543C82.0471 38.9593 82.5501 38.7793 83.1241 38.7793C83.8061 38.7793 84.3441 38.9593 84.7041 39.3543C85.0425 39.7187 85.2455 40.1882 85.2791 40.6843H80.8981Z" fill="#42389E"/>
<path d="M97.9902 37.3C97.1282 36.582 95.9432 36.187 94.4702 36.187C93.5362 36.187 92.6402 36.402 91.8502 36.787C91.0962 37.147 90.3782 37.792 89.9102 38.582L89.9462 38.618L91.7762 40.342C92.5302 39.157 93.3562 38.726 94.4692 38.726C95.0692 38.726 95.5462 38.87 95.9412 39.193C96.3012 39.516 96.5162 39.911 96.5162 40.413V40.953C95.7982 40.738 95.1162 40.63 94.4332 40.63C93.0332 40.63 91.8832 40.953 91.0332 41.6C90.1832 42.247 89.7402 43.216 89.7402 44.437C89.7402 45.514 90.1002 46.34 90.8532 46.987C91.6072 47.587 92.5052 47.921 93.5832 47.921C94.6612 47.921 95.6662 47.491 96.5992 46.736V47.67H99.3992V40.416C99.2912 39.086 98.8592 38.01 97.9992 37.292L97.9902 37.3ZM92.9632 43.404C93.2862 43.189 93.7632 43.081 94.3282 43.081C95.0102 43.081 95.7282 43.225 96.4832 43.476V44.589C95.8832 45.164 95.0472 45.451 94.0412 45.451C93.5382 45.451 93.1792 45.343 92.8912 45.128C92.7656 45.0306 92.6644 44.9052 92.5958 44.7618C92.5273 44.6184 92.4932 44.4609 92.4962 44.302C92.4861 44.1242 92.5241 43.9469 92.6063 43.7888C92.6885 43.6308 92.8118 43.4978 92.9632 43.404Z" fill="#42389E"/>
<path d="M110.198 37.5153C109.398 36.6173 108.295 36.1853 106.894 36.1853C105.781 36.1853 104.847 36.5083 104.164 37.1553V36.4733H101.399V47.7133H104.236V41.5003C104.236 40.6383 104.451 39.9563 104.836 39.5003C105.221 39.0443 105.77 38.7823 106.524 38.7823C107.17 38.7823 107.637 38.9973 107.996 39.4283C108.355 39.8593 108.536 40.4683 108.536 41.1883V47.7233H111.373V41.1883C111.373 39.6443 110.978 38.3883 110.188 37.5253L110.198 37.5153ZM57.0912 47.9653C54.9008 47.965 52.8003 47.0948 51.2515 45.546C49.7026 43.9972 48.8324 41.8966 48.8322 39.7063C48.8324 37.5159 49.7026 35.4154 51.2515 33.8666C52.8003 32.3178 54.9008 31.4475 57.0912 31.4473C59.2815 31.4475 61.382 32.3178 62.9309 33.8666C64.4797 35.4154 65.3499 37.5159 65.3502 39.7063C65.3499 41.8966 64.4797 43.9972 62.9309 45.546C61.382 47.0948 59.2815 47.965 57.0912 47.9653ZM57.0912 34.3653C54.1462 34.3653 51.7412 36.7713 51.7412 39.7153C51.7412 42.6593 54.1472 45.0653 57.0912 45.0653C60.0352 45.0653 62.4412 42.6593 62.4412 39.7153C62.4412 36.7713 60.0352 34.3653 57.0912 34.3653Z" fill="#42389E"/>
</svg>
