<svg width="156" height="60" viewBox="0 0 156 60" fill="none" xmlns="http://www.w3.org/2000/svg">
<path d="M22.73 23.5733L23.874 23.5933L26.982 20.4853L27.132 19.1683C24.662 16.9713 21.412 15.6343 17.855 15.6343C11.415 15.6343 5.97902 20.0163 4.36902 25.9523C4.70902 25.7153 5.43402 25.8923 5.43402 25.8923L11.646 24.8703C11.646 24.8703 11.966 24.3403 12.126 24.3733C13.4594 22.9146 15.2992 22.0196 17.2699 21.8709C19.2407 21.7222 21.1929 22.3311 22.73 23.5733Z" fill="#42389E"/>
<path d="M31.36 25.963C30.6459 23.3357 29.1807 20.9738 27.144 19.167L22.742 23.569C23.6454 24.2951 24.3745 25.2145 24.8755 26.2596C25.3765 27.3048 25.6368 28.449 25.637 29.608V30.385C27.779 30.385 29.517 32.128 29.517 34.265C29.517 36.402 27.774 38.145 25.637 38.145H17.875L17.098 38.925V43.583L17.875 44.356H25.637C28.3102 44.3489 30.8718 43.2833 32.7614 41.3924C34.651 39.5015 35.7147 36.9392 35.72 34.266C35.716 30.83 33.984 27.786 31.35 25.963H31.36Z" fill="#42389E"/>
<path d="M10.0939 44.3632H17.8539V38.1512H10.0939C9.54288 38.1515 8.99822 38.0331 8.49695 37.8042L7.37695 38.1472L4.26895 41.2552L3.99695 42.3052C5.7456 43.6478 7.89031 44.3724 10.0949 44.3652L10.0939 44.3632Z" fill="#42389E"/>
<path d="M10.094 24.1763C7.41821 24.1805 4.85322 25.2453 2.96114 27.1374C1.06906 29.0295 0.00423135 31.5945 4.91191e-10 34.2703C-1.53802e-05 35.8284 0.361179 37.3653 1.05521 38.7603C1.74925 40.1553 2.75723 41.3704 4 42.3103L8.5 37.8103C7.81836 37.5036 7.23982 37.0065 6.83392 36.3789C6.42803 35.7512 6.21207 35.0197 6.212 34.2723C6.212 32.1303 7.955 30.3923 10.092 30.3923C10.8392 30.3936 11.5702 30.61 12.1976 31.0158C12.825 31.4215 13.3223 31.9994 13.63 32.6803L18.13 28.1803C16.284 25.7503 13.37 24.1803 10.09 24.1803L10.094 24.1763Z" fill="#42389E"/>
<path d="M51.4942 35.4291C49.3742 35.4291 47.5542 34.6791 46.0202 33.1791C44.4862 31.6791 43.7202 29.8751 43.7202 27.7711C43.7202 25.6671 44.4852 23.8631 46.0202 22.3631C47.5552 20.8631 49.3772 20.1121 51.4942 20.1121C52.4653 20.098 53.4296 20.2773 54.3307 20.6395C55.2319 21.0018 56.052 21.5398 56.7432 22.2221L55.2662 23.6991C54.2554 22.7218 52.899 22.1843 51.4932 22.2041C49.9632 22.2041 48.6632 22.7441 47.5972 23.8311C47.0786 24.3461 46.6697 24.9608 46.3952 25.6381C46.1207 26.3155 45.9863 27.0414 46.0002 27.7721C46.0002 29.3181 46.5302 30.6291 47.5972 31.7121C48.0986 32.2382 48.7038 32.6544 49.3744 32.9345C50.045 33.2146 50.7665 33.3523 51.4932 33.3391C53.0512 33.3391 54.3382 32.8391 55.3632 31.8051C55.9632 31.2051 56.3632 30.3051 56.5032 29.1701H51.4972V27.0781H58.5412C58.6162 27.4501 58.6412 27.8781 58.6412 28.3781C58.6412 30.4341 58.0382 32.0641 56.8282 33.2731C55.4562 34.7081 53.6782 35.4231 51.4832 35.4231L51.4942 35.4291ZM67.8642 34.0291C66.9042 34.9691 65.7342 35.4291 64.3522 35.4291C62.9702 35.4291 61.7982 34.9591 60.8402 34.0291C59.8822 33.0991 59.4022 31.9161 59.4022 30.5091C59.4022 29.1021 59.8822 27.9291 60.8402 26.9891C61.7982 26.0491 62.9702 25.5891 64.3522 25.5891C65.7342 25.5891 66.9062 26.0591 67.8642 26.9891C68.8222 27.9191 69.3022 29.1051 69.3022 30.5091C69.3022 31.9131 68.8222 33.0891 67.8642 34.0291ZM62.3902 32.6491C62.6396 32.9202 62.9433 33.1359 63.2815 33.2822C63.6196 33.4284 63.9847 33.502 64.3532 33.4981C65.1132 33.4981 65.7672 33.2161 66.3162 32.6481C66.8652 32.0801 67.1382 31.3681 67.1382 30.5081C67.1382 29.6381 66.8682 28.9201 66.3252 28.3581C65.7822 27.7961 65.1272 27.5181 64.3532 27.5181C63.984 27.5124 63.6177 27.5843 63.2781 27.729C62.9384 27.8737 62.6328 28.088 62.3812 28.3581C61.8382 28.9181 61.5682 29.6341 61.5682 30.5081C61.5682 31.3661 61.8412 32.0811 62.3902 32.6481V32.6491ZM78.6632 34.0291C77.7032 34.9691 76.5332 35.4291 75.1512 35.4291C73.7692 35.4291 72.5972 34.9591 71.6392 34.0291C70.6812 33.0991 70.2012 31.9161 70.2012 30.5091C70.2012 29.1021 70.6812 27.9291 71.6392 26.9891C72.5972 26.0491 73.7692 25.5891 75.1512 25.5891C76.5332 25.5891 77.7052 26.0591 78.6632 26.9891C79.6212 27.9191 80.1012 29.1051 80.1012 30.5091C80.1012 31.9131 79.6212 33.0891 78.6632 34.0291ZM73.1892 32.6491C73.4386 32.9202 73.7423 33.1359 74.0805 33.2822C74.4186 33.4284 74.7837 33.502 75.1522 33.4981C75.9122 33.4981 76.5662 33.2161 77.1152 32.6481C77.6642 32.0801 77.9372 31.3681 77.9372 30.5081C77.9372 29.6381 77.6672 28.9201 77.1242 28.3581C76.5812 27.7961 75.9262 27.5181 75.1522 27.5181C74.783 27.5124 74.4167 27.5843 74.0771 27.729C73.7374 27.8737 73.4318 28.088 73.1802 28.3581C72.6372 28.9181 72.3672 29.6341 72.3672 30.5081C72.3672 31.3661 72.6402 32.0811 73.1892 32.6481V32.6491ZM85.7622 39.8691C84.6672 39.8691 83.7452 39.5751 82.9982 38.9891C82.2512 38.4031 81.7162 37.7251 81.3922 36.9511L83.2802 36.1681C83.4782 36.6421 83.7802 37.0531 84.2132 37.4021C84.6462 37.7511 85.1532 37.9241 85.7652 37.9241C86.5872 37.9241 87.2332 37.6741 87.6982 37.1771C88.1632 36.6801 88.3982 35.9611 88.3982 35.0271V34.3271H88.3232C87.7232 35.0741 86.8462 35.4491 85.7272 35.4491C84.4692 35.4491 83.3671 34.9691 82.4202 34.0111C81.9601 33.5583 81.597 33.0166 81.3529 32.419C81.1088 31.8215 80.9888 31.1805 81.0002 30.5351C80.9886 29.8857 81.1084 29.2406 81.3524 28.6386C81.5965 28.0366 81.9596 27.4902 82.4202 27.0321C83.3652 26.0691 84.4702 25.5851 85.7272 25.5851C86.2872 25.5851 86.7952 25.6901 87.2492 25.9031C87.7032 26.1161 88.0621 26.3771 88.3232 26.6861H88.3982V25.8921H90.4542V34.7491C90.4542 36.4691 90.0162 37.7531 89.1362 38.6091C88.2562 39.4591 87.1342 39.8891 85.7632 39.8891L85.7622 39.8691ZM85.9122 33.4971C86.2687 33.5034 86.6221 33.4305 86.947 33.2837C87.272 33.1369 87.5603 32.9198 87.7912 32.6481C88.2952 32.0811 88.5472 31.3751 88.5472 30.5261C88.5472 29.6681 88.2952 28.9501 87.7912 28.3761C87.5616 28.1022 87.2738 27.8831 86.9487 27.7346C86.6236 27.5862 86.2695 27.5122 85.9122 27.5181C85.1522 27.5181 84.5042 27.8061 83.9702 28.3761C83.4362 28.9461 83.1662 29.6641 83.1662 30.5261C83.1662 31.3721 83.4332 32.0811 83.9702 32.6481C84.5072 33.2151 85.1532 33.4971 85.9122 33.4971ZM94.1142 20.6321V35.1321H91.9472V20.6321H94.1142ZM100.054 35.4281C98.6582 35.4281 97.4942 34.9541 96.5602 34.0081C95.6262 33.0621 95.1582 31.8921 95.1582 30.4961C95.1582 29.0521 95.6082 27.8661 96.5122 26.9461C96.9362 26.4998 97.4483 26.1464 98.016 25.9082C98.5837 25.67 99.1946 25.5521 99.8102 25.5621C100.407 25.5621 100.963 25.6701 101.473 25.8891C101.947 26.0834 102.379 26.3688 102.743 26.7291C103.047 27.0316 103.317 27.3666 103.547 27.7281C103.738 28.0371 103.9 28.3623 104.033 28.7001L104.258 29.2601L97.6642 31.9921C98.1642 32.9881 98.9642 33.4871 100.056 33.4871C101.052 33.4871 101.863 33.0341 102.484 32.1241L104.164 33.2461C103.789 33.8061 103.261 34.3111 102.576 34.7591C101.891 35.2071 101.048 35.4291 100.052 35.4291L100.054 35.4281ZM97.3082 30.3481L101.708 28.5181C101.582 28.2061 101.354 27.9541 101.008 27.7621C100.66 27.5672 100.267 27.4678 99.8682 27.4741C99.2322 27.4741 98.6382 27.7341 98.0852 28.2571C97.5322 28.7801 97.2652 29.4791 97.2902 30.3491L97.3082 30.3481ZM115.638 35.4281C113.668 35.4281 112.018 34.7621 110.686 33.4281C109.354 32.0941 108.686 30.4331 108.686 28.4401C108.686 26.4471 109.352 24.7841 110.686 23.4521C112.02 22.1201 113.669 21.4521 115.638 21.4521C117.655 21.4521 119.294 22.1821 120.551 23.6371L119.356 24.7971C118.456 23.6631 117.206 23.0971 115.636 23.0971C114.176 23.0971 112.95 23.5891 111.936 24.5741C110.922 25.5591 110.432 26.8461 110.432 28.4401C110.432 30.0341 110.932 31.3241 111.936 32.3101C112.94 33.2961 114.169 33.7871 115.636 33.7871C117.242 33.7871 118.613 33.1391 119.736 31.8451L120.931 33.0401C120.305 33.7873 119.519 34.3843 118.631 34.7871C117.689 35.2202 116.664 35.4395 115.627 35.4291L115.638 35.4281ZM124.194 35.1321H122.474V21.7551H124.194V35.1321ZM126.997 27.0721C127.882 26.1451 128.997 25.6791 130.379 25.6791C131.761 25.6791 132.876 26.1441 133.761 27.0721C134.646 28.0001 135.088 29.1721 135.088 30.5571C135.088 31.9421 134.648 33.1141 133.761 34.0421C132.874 34.9701 131.761 35.4351 130.379 35.4351C128.997 35.4351 127.882 34.9701 126.997 34.0421C126.112 33.1141 125.67 31.9421 125.67 30.5571C125.67 29.1721 126.11 28.0001 126.997 27.0721ZM128.277 32.9551C128.877 33.5581 129.571 33.8611 130.377 33.8611C131.183 33.8611 131.877 33.5581 132.477 32.9551C133.077 32.3521 133.365 31.5501 133.365 30.5551C133.365 29.5601 133.068 28.7571 132.477 28.1551C131.886 27.5531 131.183 27.2491 130.377 27.2491C129.571 27.2491 128.877 27.5521 128.277 28.1551C127.677 28.7581 127.389 29.5601 127.389 30.5551C127.389 31.5501 127.686 32.3531 128.277 32.9551ZM144.597 35.1321H142.952V33.8621H142.877C142.617 34.2971 142.217 34.6691 141.682 34.9621C141.147 35.2551 140.582 35.4221 139.982 35.4221C138.835 35.4221 137.968 35.0741 137.377 34.3751C136.786 33.6761 136.489 32.7421 136.489 31.5721V25.9661H138.209V31.2901C138.209 32.9981 138.962 33.8501 140.469 33.8501C140.806 33.8572 141.141 33.783 141.443 33.6336C141.746 33.4843 142.008 33.2642 142.207 32.9921C142.652 32.4284 142.889 31.729 142.879 31.0111V25.9661H144.599V35.1231L144.597 35.1321ZM150.425 35.4291C149.242 35.4291 148.219 34.9611 147.361 34.0271C146.503 33.0931 146.073 31.9351 146.073 30.5511C146.073 29.1671 146.503 28.0091 147.361 27.0751C148.219 26.1411 149.243 25.6731 150.425 25.6731C151.121 25.6731 151.749 25.8231 152.305 26.1201C152.861 26.4171 153.275 26.7921 153.548 27.2421H153.623L153.548 25.9721V21.7521H155.268V35.1321H153.623V33.8621H153.548C153.275 34.3091 152.861 34.6841 152.305 34.9841C151.75 35.2781 151.122 35.4291 150.425 35.4291ZM150.705 33.8591C151.093 33.8644 151.478 33.7871 151.834 33.6325C152.19 33.4779 152.509 33.2493 152.77 32.9621C153.337 32.3651 153.62 31.5601 153.62 30.5621C153.62 29.5641 153.338 28.7491 152.77 28.1621C152.509 27.8749 152.19 27.6463 151.834 27.4917C151.478 27.3371 151.093 27.2598 150.705 27.2651C149.907 27.2651 149.222 27.5681 148.649 28.1711C148.076 28.7741 147.791 29.5761 147.791 30.5711C147.791 31.5661 148.076 32.3691 148.649 32.9711C148.908 33.2593 149.225 33.4892 149.58 33.6454C149.934 33.8016 150.318 33.8806 150.705 33.8771V33.8591Z" fill="#42389E"/>
</svg>
