<svg width="121" height="60" viewBox="0 0 121 60" fill="none" xmlns="http://www.w3.org/2000/svg">
<path d="M21.0922 14.3301V16.4741H36.3422V14.3301H21.0922ZM38.5042 14.3301V16.4741H60.2382C60.2382 16.4741 58.0182 14.3301 55.0782 14.3301H38.5042ZM64.5012 14.3301V16.4741H77.6482L76.8682 14.3301H64.5012ZM87.0762 14.3301L86.2962 16.4741H99.3262V14.3301H87.0762ZM21.0922 18.5001V20.6441H36.3422V18.5001H21.0922ZM38.5042 18.5031V20.6431H62.7582C62.7582 20.6431 62.4752 18.9931 61.9812 18.5031H38.5042ZM64.5012 18.5031V20.6431H79.1012L78.3792 18.5031H64.5012ZM85.5152 18.5031L84.7932 20.6431H99.3252V18.5031H85.5152ZM25.4752 22.6701V24.8171H32.0802V22.6701H25.4752ZM42.8872 22.6701V24.8171H49.4922V22.6701H42.8872ZM55.9172 22.6701V24.8171H62.5222C62.5222 24.8171 62.9422 23.6831 62.9422 22.6701H55.9172ZM68.8852 22.6701V24.8171H80.5852L79.8052 22.6701H68.8852ZM84.0782 22.6701L83.2942 24.8171H95.0622V22.6701H84.0782ZM25.4762 26.8431V28.9871H32.0812V26.8431H25.4762ZM42.8882 26.8431V28.9871H59.7582C59.7582 28.9871 61.1682 27.8871 61.6182 26.8431H42.8882ZM68.8852 26.8431V28.9871H75.4902V27.7931L75.9102 28.9871H88.0102L88.4602 27.7931V28.9871H95.0652V26.8431H82.6652L82.0072 28.6591L81.3472 26.8431H68.8852ZM25.4752 31.0131V33.1571H32.0802V31.0131H25.4752ZM42.8872 31.0131V33.1571H61.6172C61.1672 32.1171 59.7572 31.0131 59.7572 31.0131H42.8872ZM68.8842 31.0131V33.1571H75.4892V31.0131H68.8842ZM76.6892 31.0131L77.4892 33.1571H86.5612L87.3212 31.0131H76.6892ZM88.4572 31.0131V33.1571H95.0622V31.0131H88.4572ZM25.4772 35.1831V37.3271H32.0822V35.1831H25.4772ZM42.8892 35.1831V37.3271H49.4942V35.1831H42.8892ZM55.9192 35.1831V37.3271H62.9432C62.9432 36.3151 62.5232 35.1831 62.5232 35.1831H55.9192ZM68.8872 35.1831V37.3271H75.4922V35.1831H68.8872ZM78.1912 35.1831L78.9652 37.3271H85.0452L85.8252 35.1831H78.1912ZM88.4592 35.1831V37.3271H95.0642V35.1831H88.4592ZM21.2142 39.3531V41.5001H36.4642V39.3531H21.2142ZM38.5072 39.3531V41.5001H61.9852C62.4792 41.0081 62.7622 39.3531 62.7622 39.3531H38.5072ZM64.6232 39.3531V41.5001H75.4882V39.3531H64.6232ZM79.6932 39.3531L80.4892 41.5001H83.5832L84.3302 39.3531H79.6932ZM88.4592 39.3531V41.5001H99.4472V39.3531H88.4592ZM21.2142 43.5261V45.6701H36.4642V43.5261H21.2142ZM38.5072 43.5261V45.6661H55.0782C58.0182 45.6661 60.2382 43.5261 60.2382 43.5261H38.5072ZM64.6232 43.5261V45.6701H75.4882V43.5261H64.6232ZM81.2032 43.5261L81.9682 45.6641L82.1002 45.6671L82.8772 43.5271L81.2032 43.5261ZM88.4602 43.5261V45.6701H99.4482V43.5261H88.4602Z" fill="#42389E"/>
</svg>
