<svg width="211" height="61" viewBox="0 0 211 61" fill="none" xmlns="http://www.w3.org/2000/svg">
<path d="M15 5.10001V48.9092M33 55.9V32.1312V14.4211H5H59.5" stroke="url(#paint0_linear_1334_6167)" stroke-width="9" stroke-linecap="round"/>
<path d="M62.2094 39.5V21.668H66.0014V39.5H62.2094ZM70.1572 39.5V26.144H73.4812L73.5412 27.644C73.8452 27.388 74.2332 27.132 74.7052 26.876C75.1772 26.612 75.6972 26.392 76.2652 26.216C76.8412 26.04 77.4212 25.948 78.0052 25.94C79.3972 25.908 80.4212 26.28 81.0772 27.056C81.7332 27.824 82.0612 29.176 82.0612 31.112V39.5H78.3892V31.628C78.3892 30.588 78.2532 29.86 77.9812 29.444C77.7092 29.028 77.1772 28.836 76.3852 28.868C76.1452 28.876 75.8732 28.92 75.5692 29C75.2732 29.072 74.9692 29.184 74.6572 29.336C74.3532 29.48 74.0692 29.66 73.8052 29.876V39.5H70.1572ZM89.6933 39.692C88.8773 39.692 88.2013 39.56 87.6653 39.296C87.1373 39.024 86.7413 38.596 86.4773 38.012C86.2213 37.428 86.0933 36.656 86.0933 35.696V28.64H84.4733V26.684C85.0653 26.516 85.5373 26.356 85.8893 26.204C86.2493 26.052 86.5093 25.788 86.6693 25.412C86.7493 25.228 86.8333 25.012 86.9213 24.764C87.0173 24.516 87.1173 24.248 87.2213 23.96C87.3253 23.672 87.4333 23.38 87.5453 23.084H89.7533V26.132H93.3413V28.64H89.7533V34.148C89.7533 34.996 89.7973 35.616 89.8853 36.008C89.9733 36.392 90.1253 36.64 90.3413 36.752C90.5573 36.856 90.8693 36.908 91.2773 36.908C91.4853 36.908 91.7253 36.884 91.9973 36.836C92.2693 36.78 92.5293 36.712 92.7773 36.632C93.0253 36.552 93.2173 36.468 93.3533 36.38L93.8333 38.432C93.6173 38.624 93.2933 38.82 92.8613 39.02C92.4293 39.212 91.9373 39.372 91.3853 39.5C90.8333 39.628 90.2693 39.692 89.6933 39.692ZM101.893 39.692C99.8374 39.692 98.2614 39.08 97.1654 37.856C96.0694 36.632 95.5214 34.94 95.5214 32.78C95.5214 31.484 95.7694 30.324 96.2654 29.3C96.7694 28.276 97.4974 27.468 98.4494 26.876C99.4014 26.276 100.565 25.972 101.941 25.964C102.637 25.956 103.301 26.044 103.933 26.228C104.565 26.412 105.129 26.712 105.625 27.128C106.121 27.536 106.517 28.08 106.813 28.76C107.117 29.432 107.273 30.256 107.281 31.232C107.281 31.72 107.273 32.172 107.257 32.588C107.241 33.004 107.205 33.36 107.149 33.656H97.4894L97.7294 31.676H103.873C103.913 31.028 103.877 30.46 103.765 29.972C103.661 29.476 103.453 29.092 103.141 28.82C102.829 28.54 102.389 28.4 101.821 28.4C101.269 28.4 100.785 28.552 100.369 28.856C99.9614 29.16 99.6454 29.684 99.4214 30.428C99.2054 31.164 99.1134 32.18 99.1454 33.476C99.1774 34.348 99.3454 35.048 99.6494 35.576C99.9614 36.096 100.381 36.472 100.909 36.704C101.445 36.928 102.065 37.04 102.769 37.04C103.153 37.04 103.573 37.008 104.029 36.944C104.485 36.88 104.917 36.796 105.325 36.692C105.733 36.58 106.045 36.468 106.261 36.356L106.873 38.348C106.577 38.588 106.169 38.812 105.649 39.02C105.137 39.22 104.553 39.38 103.897 39.5C103.249 39.628 102.581 39.692 101.893 39.692ZM110.188 39.5V20H113.86V39.5H110.188ZM117.547 39.5V20H121.219V39.5H117.547ZM125.003 39.5V26.144H128.663V39.5H125.003ZM126.647 24.212C126.055 24.212 125.555 24.028 125.147 23.66C124.739 23.292 124.535 22.812 124.535 22.22C124.535 21.82 124.643 21.456 124.859 21.128C125.083 20.792 125.371 20.524 125.723 20.324C126.083 20.124 126.467 20.024 126.875 20.024C127.531 20.024 128.043 20.212 128.411 20.588C128.787 20.956 128.975 21.432 128.975 22.016C128.975 22.624 128.743 23.144 128.279 23.576C127.823 24 127.279 24.212 126.647 24.212ZM136.161 39.5V24.548H131.085V21.668H145.017V24.548H139.941V39.5H136.161ZM151.307 39.692C150.139 39.692 149.147 39.504 148.331 39.128C147.515 38.744 146.855 38.22 146.351 37.556C145.855 36.892 145.495 36.132 145.271 35.276C145.047 34.412 144.939 33.5 144.947 32.54C144.971 31.116 145.267 29.916 145.835 28.94C146.411 27.964 147.191 27.224 148.175 26.72C149.167 26.216 150.291 25.964 151.547 25.964C153.115 25.964 154.367 26.292 155.303 26.948C156.239 27.604 156.911 28.476 157.319 29.564C157.727 30.644 157.919 31.82 157.895 33.092C157.879 34.524 157.587 35.732 157.019 36.716C156.451 37.692 155.675 38.432 154.691 38.936C153.707 39.44 152.579 39.692 151.307 39.692ZM151.403 37.136C152.355 37.144 153.047 36.788 153.479 36.068C153.911 35.348 154.127 34.304 154.127 32.936C154.127 32.128 154.039 31.392 153.863 30.728C153.687 30.064 153.403 29.532 153.011 29.132C152.627 28.732 152.115 28.528 151.475 28.52C150.515 28.512 149.819 28.864 149.387 29.576C148.955 30.28 148.739 31.3 148.739 32.636C148.739 33.452 148.827 34.204 149.003 34.892C149.179 35.572 149.459 36.116 149.843 36.524C150.235 36.932 150.755 37.136 151.403 37.136ZM165.568 45.548C163.464 45.532 161.896 45.176 160.864 44.48C159.84 43.792 159.328 42.812 159.328 41.54C159.328 41.068 159.44 40.64 159.664 40.256C159.888 39.88 160.192 39.56 160.576 39.296C160.968 39.024 161.412 38.816 161.908 38.672L163.996 38.864C163.86 38.976 163.7 39.116 163.516 39.284C163.34 39.452 163.184 39.668 163.048 39.932C162.912 40.196 162.844 40.532 162.844 40.94C162.844 41.396 162.928 41.812 163.096 42.188C163.272 42.564 163.568 42.864 163.984 43.088C164.408 43.312 164.996 43.424 165.748 43.424C166.372 43.424 166.94 43.352 167.452 43.208C167.972 43.072 168.38 42.856 168.676 42.56C168.98 42.272 169.132 41.896 169.132 41.432C169.132 41.032 169.06 40.68 168.916 40.376C168.78 40.08 168.504 39.848 168.088 39.68C167.68 39.512 167.076 39.428 166.276 39.428H164.056C163.752 39.428 163.484 39.408 163.252 39.368C163.02 39.32 162.792 39.272 162.568 39.224C162.416 39.184 162.308 39.144 162.244 39.104C162.188 39.056 162.076 39.016 161.908 38.984C161.308 38.816 160.88 38.572 160.624 38.252C160.368 37.924 160.24 37.52 160.24 37.04C160.248 36.728 160.316 36.404 160.444 36.068C160.572 35.724 160.792 35.396 161.104 35.084C161.416 34.764 161.84 34.492 162.376 34.268L164.44 34.64C164.12 34.76 163.868 34.952 163.684 35.216C163.508 35.472 163.42 35.728 163.42 35.984C163.42 36.376 163.54 36.648 163.78 36.8C164.028 36.944 164.452 37.016 165.052 37.016H167.464C168.496 37.016 169.348 37.116 170.02 37.316C170.692 37.516 171.22 37.792 171.604 38.144C171.988 38.488 172.256 38.88 172.408 39.32C172.568 39.752 172.648 40.204 172.648 40.676C172.648 41.476 172.456 42.18 172.072 42.788C171.688 43.404 171.164 43.916 170.5 44.324C169.836 44.732 169.08 45.04 168.232 45.248C167.384 45.456 166.496 45.556 165.568 45.548ZM165.376 34.976C164.272 34.976 163.292 34.8 162.436 34.448C161.588 34.096 160.924 33.588 160.444 32.924C159.964 32.26 159.724 31.468 159.724 30.548C159.724 29.548 159.96 28.708 160.432 28.028C160.904 27.348 161.564 26.836 162.412 26.492C163.268 26.148 164.264 25.972 165.4 25.964C166.544 25.956 167.548 26.12 168.412 26.456C169.284 26.792 169.96 27.296 170.44 27.968C170.928 28.632 171.172 29.456 171.172 30.44C171.172 31.416 170.948 32.244 170.5 32.924C170.052 33.596 169.396 34.108 168.532 34.46C167.668 34.804 166.616 34.976 165.376 34.976ZM165.424 32.924C166.128 32.924 166.692 32.764 167.116 32.444C167.548 32.116 167.764 31.472 167.764 30.512C167.764 29.736 167.576 29.152 167.2 28.76C166.832 28.36 166.268 28.16 165.508 28.16C165.06 28.16 164.668 28.228 164.332 28.364C163.996 28.492 163.732 28.724 163.54 29.06C163.356 29.396 163.264 29.868 163.264 30.476C163.264 31.14 163.428 31.716 163.756 32.204C164.084 32.684 164.64 32.924 165.424 32.924ZM169.6 28.736L169.024 27.224C169.184 27.008 169.508 26.768 169.996 26.504C170.484 26.232 171.056 26.096 171.712 26.096H173.272V28.736H169.6ZM180.802 45.548C178.698 45.532 177.13 45.176 176.098 44.48C175.074 43.792 174.562 42.812 174.562 41.54C174.562 41.068 174.674 40.64 174.898 40.256C175.122 39.88 175.426 39.56 175.81 39.296C176.202 39.024 176.646 38.816 177.142 38.672L179.23 38.864C179.094 38.976 178.934 39.116 178.75 39.284C178.574 39.452 178.418 39.668 178.282 39.932C178.146 40.196 178.078 40.532 178.078 40.94C178.078 41.396 178.162 41.812 178.33 42.188C178.506 42.564 178.802 42.864 179.218 43.088C179.642 43.312 180.23 43.424 180.982 43.424C181.606 43.424 182.174 43.352 182.686 43.208C183.206 43.072 183.614 42.856 183.91 42.56C184.214 42.272 184.366 41.896 184.366 41.432C184.366 41.032 184.294 40.68 184.15 40.376C184.014 40.08 183.738 39.848 183.322 39.68C182.914 39.512 182.31 39.428 181.51 39.428H179.29C178.986 39.428 178.718 39.408 178.486 39.368C178.254 39.32 178.026 39.272 177.802 39.224C177.65 39.184 177.542 39.144 177.478 39.104C177.422 39.056 177.31 39.016 177.142 38.984C176.542 38.816 176.114 38.572 175.858 38.252C175.602 37.924 175.474 37.52 175.474 37.04C175.482 36.728 175.55 36.404 175.678 36.068C175.806 35.724 176.026 35.396 176.338 35.084C176.65 34.764 177.074 34.492 177.61 34.268L179.674 34.64C179.354 34.76 179.102 34.952 178.918 35.216C178.742 35.472 178.654 35.728 178.654 35.984C178.654 36.376 178.774 36.648 179.014 36.8C179.262 36.944 179.686 37.016 180.286 37.016H182.698C183.73 37.016 184.582 37.116 185.254 37.316C185.926 37.516 186.454 37.792 186.838 38.144C187.222 38.488 187.49 38.88 187.642 39.32C187.802 39.752 187.882 40.204 187.882 40.676C187.882 41.476 187.69 42.18 187.306 42.788C186.922 43.404 186.398 43.916 185.734 44.324C185.07 44.732 184.314 45.04 183.466 45.248C182.618 45.456 181.73 45.556 180.802 45.548ZM180.61 34.976C179.506 34.976 178.526 34.8 177.67 34.448C176.822 34.096 176.158 33.588 175.678 32.924C175.198 32.26 174.958 31.468 174.958 30.548C174.958 29.548 175.194 28.708 175.666 28.028C176.138 27.348 176.798 26.836 177.646 26.492C178.502 26.148 179.498 25.972 180.634 25.964C181.778 25.956 182.782 26.12 183.646 26.456C184.518 26.792 185.194 27.296 185.674 27.968C186.162 28.632 186.406 29.456 186.406 30.44C186.406 31.416 186.182 32.244 185.734 32.924C185.286 33.596 184.63 34.108 183.766 34.46C182.902 34.804 181.85 34.976 180.61 34.976ZM180.658 32.924C181.362 32.924 181.926 32.764 182.35 32.444C182.782 32.116 182.998 31.472 182.998 30.512C182.998 29.736 182.81 29.152 182.434 28.76C182.066 28.36 181.502 28.16 180.742 28.16C180.294 28.16 179.902 28.228 179.566 28.364C179.23 28.492 178.966 28.724 178.774 29.06C178.59 29.396 178.498 29.868 178.498 30.476C178.498 31.14 178.662 31.716 178.99 32.204C179.318 32.684 179.874 32.924 180.658 32.924ZM184.834 28.736L184.258 27.224C184.418 27.008 184.742 26.768 185.23 26.504C185.718 26.232 186.29 26.096 186.946 26.096H188.506V28.736H184.834ZM190.649 39.5V20H194.321V39.5H190.649ZM203.612 39.692C201.556 39.692 199.98 39.08 198.884 37.856C197.788 36.632 197.24 34.94 197.24 32.78C197.24 31.484 197.488 30.324 197.984 29.3C198.488 28.276 199.216 27.468 200.168 26.876C201.12 26.276 202.284 25.972 203.66 25.964C204.356 25.956 205.02 26.044 205.652 26.228C206.284 26.412 206.848 26.712 207.344 27.128C207.84 27.536 208.236 28.08 208.532 28.76C208.836 29.432 208.992 30.256 209 31.232C209 31.72 208.992 32.172 208.976 32.588C208.96 33.004 208.924 33.36 208.868 33.656H199.208L199.448 31.676H205.592C205.632 31.028 205.596 30.46 205.484 29.972C205.38 29.476 205.172 29.092 204.86 28.82C204.548 28.54 204.108 28.4 203.54 28.4C202.988 28.4 202.504 28.552 202.088 28.856C201.68 29.16 201.364 29.684 201.14 30.428C200.924 31.164 200.832 32.18 200.864 33.476C200.896 34.348 201.064 35.048 201.368 35.576C201.68 36.096 202.1 36.472 202.628 36.704C203.164 36.928 203.784 37.04 204.488 37.04C204.872 37.04 205.292 37.008 205.748 36.944C206.204 36.88 206.636 36.796 207.044 36.692C207.452 36.58 207.764 36.468 207.98 36.356L208.592 38.348C208.296 38.588 207.888 38.812 207.368 39.02C206.856 39.22 206.272 39.38 205.616 39.5C204.968 39.628 204.3 39.692 203.612 39.692Z" fill="url(#paint1_linear_1334_6167)"/>
<defs>
<linearGradient id="paint0_linear_1334_6167" x1="32.25" y1="5.10001" x2="32.25" y2="55.9" gradientUnits="userSpaceOnUse">
<stop stop-color="#42389E"/>
<stop offset="1" stop-color="#0F1026"/>
</linearGradient>
<linearGradient id="paint1_linear_1334_6167" x1="135" y1="15.5" x2="135" y2="45.5" gradientUnits="userSpaceOnUse">
<stop stop-color="#42389E"/>
<stop offset="1" stop-color="#0F1026"/>
</linearGradient>
</defs>
</svg>
