<svg width="223" height="122" viewBox="0 0 223 122" fill="none" xmlns="http://www.w3.org/2000/svg">
<rect width="223" height="121.865" rx="10.2564" fill="url(#paint0_linear_949_18574)"/>
<path d="M20.5303 12.5332H202.47C206.886 12.5334 210.467 16.1137 210.467 20.5303V46.1221C210.467 50.5388 206.886 54.1199 202.47 54.1201H20.5303C16.1136 54.1199 12.5332 50.5388 12.5332 46.1221V20.5303C12.5334 16.1137 16.1137 12.5334 20.5303 12.5332Z" fill="#F5F7FA"/>
<path d="M20.5303 12.5332H202.47C206.886 12.5334 210.467 16.1137 210.467 20.5303V46.1221C210.467 50.5388 206.886 54.1199 202.47 54.1201H20.5303C16.1136 54.1199 12.5332 50.5388 12.5332 46.1221V20.5303C12.5334 16.1137 16.1137 12.5334 20.5303 12.5332Z" stroke="#42489E" stroke-width="1.06633"/>
<path d="M42.699 32.2603V30.1276H40.5663V27.995C40.5646 27.4299 40.3394 26.8884 39.9398 26.4888C39.5402 26.0892 38.9988 25.864 38.4337 25.8623H36.301V23.7297H34.1684V25.8623H32.0357V23.7297H29.9031V25.8623H27.7704C27.2053 25.864 26.6639 26.0892 26.2643 26.4888C25.8647 26.8884 25.6395 27.4299 25.6378 27.995V30.1276H23.5051V32.2603H25.6378V34.3929H23.5051V36.5256H25.6378V38.6582C25.6395 39.2233 25.8647 39.7648 26.2643 40.1644C26.6639 40.564 27.2053 40.7892 27.7704 40.7909H29.9031V42.9235H32.0357V40.7909H34.1684V42.9235H36.301V40.7909H38.4337C38.9988 40.7892 39.5402 40.564 39.9398 40.1644C40.3394 39.7648 40.5646 39.2233 40.5663 38.6582V36.5256H42.699V34.3929H40.5663V32.2603H42.699ZM38.4337 38.6582H27.7704V27.995H38.4337V38.6582Z" fill="#42489E"/>
<path d="M32.4208 29.0613H30.9866L28.8433 37.5919H29.9384L30.4332 35.5925H32.9028L33.3847 37.5919H34.5172L32.4208 29.0613ZM30.5771 34.7384L31.6626 30.0743H31.7117L32.7599 34.7384H30.5771ZM35.495 29.0613H36.5613V37.5919H35.495V29.0613Z" fill="#42489E"/>
<path d="M60.3104 28.7274C57.9816 28.7274 56.5783 30.4441 56.5783 32.9969C56.5783 35.6094 58.101 37.1172 60.3254 37.1172C62.1616 37.1172 63.6395 36.1767 63.6395 33.9971V33.6836H60.0268V32.3849H65.0129V38.3413H63.7888L63.6843 36.8783C63.1021 37.8188 61.7884 38.5056 60.2059 38.5056C57.1456 38.5056 55.0407 36.2961 55.0407 32.9671C55.0407 29.6828 57.1605 27.3539 60.3403 27.3539C62.699 27.3539 64.5352 28.7124 64.8935 30.7875H63.3409C62.9379 29.4141 61.7436 28.7274 60.3104 28.7274ZM69.9192 38.5056C67.7695 38.5056 66.2915 36.953 66.2915 34.6838C66.2915 32.3998 67.7396 30.8174 69.8595 30.8174C71.9345 30.8174 73.293 32.2505 73.293 34.4151V34.9376L67.65 34.9526C67.7545 36.4902 68.5607 37.3411 69.949 37.3411C71.0388 37.3411 71.7554 36.8933 71.9942 36.0573H73.308C72.9497 37.6248 71.7255 38.5056 69.9192 38.5056ZM69.8595 31.9967C68.6353 31.9967 67.859 32.7282 67.6799 34.0121H71.8897C71.8897 32.8029 71.0985 31.9967 69.8595 31.9967ZM76.1741 38.3264H74.7708V31.0264H76.0398L76.1891 32.146C76.6518 31.31 77.5774 30.8174 78.6075 30.8174C80.5333 30.8174 81.414 31.9967 81.414 33.8628V38.3264H80.0108V34.1763C80.0108 32.6984 79.3241 32.1012 78.2492 32.1012C76.9355 32.1012 76.1741 33.0417 76.1741 34.4599V38.3264ZM86.418 38.5056C84.2683 38.5056 82.7904 36.953 82.7904 34.6838C82.7904 32.3998 84.2385 30.8174 86.3583 30.8174C88.4334 30.8174 89.7919 32.2505 89.7919 34.4151V34.9376L84.1489 34.9526C84.2534 36.4902 85.0595 37.3411 86.4479 37.3411C87.5377 37.3411 88.2542 36.8933 88.4931 36.0573H89.8068C89.4485 37.6248 88.2244 38.5056 86.418 38.5056ZM86.3583 31.9967C85.1342 31.9967 84.3579 32.7282 84.1787 34.0121H88.3886C88.3886 32.8029 87.5974 31.9967 86.3583 31.9967ZM95.4497 30.9666V32.2505H94.8227C93.494 32.2505 92.673 33.0566 92.673 34.4599V38.3264H91.2697V31.0413H92.5834L92.673 32.146C92.9715 31.3846 93.703 30.8771 94.7033 30.8771C94.957 30.8771 95.166 30.9069 95.4497 30.9666ZM98.5195 38.5056C96.952 38.5056 96.0264 37.6248 96.0264 36.2961C96.0264 34.9526 97.0266 34.1166 98.7434 33.9822L101.042 33.8031V33.5941C101.042 32.3699 100.311 31.937 99.3256 31.937C98.1463 31.937 97.4745 32.4595 97.4745 33.3403H96.2503C96.2503 31.8176 97.5043 30.8174 99.3853 30.8174C101.192 30.8174 102.416 31.7728 102.416 33.7433V38.3264H101.222L101.072 37.1471C100.699 37.9831 99.6988 38.5056 98.5195 38.5056ZM98.9226 37.4158C100.251 37.4158 101.057 36.5499 101.057 35.1765V34.7883L99.1913 34.9376C97.9522 35.0571 97.4446 35.5348 97.4446 36.2513C97.4446 37.0276 98.0119 37.4158 98.9226 37.4158ZM106.213 38.3264H104.81V32.2057H103.377V31.0264H104.81V28.7423H106.213V31.0264H107.646V32.2057H106.213V38.3264ZM111.893 38.5056C109.743 38.5056 108.266 36.953 108.266 34.6838C108.266 32.3998 109.714 30.8174 111.833 30.8174C113.908 30.8174 115.267 32.2505 115.267 34.4151V34.9376L109.624 34.9526C109.728 36.4902 110.535 37.3411 111.923 37.3411C113.013 37.3411 113.729 36.8933 113.968 36.0573H115.282C114.924 37.6248 113.699 38.5056 111.893 38.5056ZM111.833 31.9967C110.609 31.9967 109.833 32.7282 109.654 34.0121H113.864C113.864 32.8029 113.072 31.9967 111.833 31.9967ZM126.679 33.7433H122.439V38.3264H120.976V27.5331H127.485V28.8766H122.439V32.4147H126.679V33.7433ZM130.362 38.3264H128.958V27.339H130.362V38.3264ZM134.472 38.5056C132.905 38.5056 131.979 37.6248 131.979 36.2961C131.979 34.9526 132.98 34.1166 134.696 33.9822L136.995 33.8031V33.5941C136.995 32.3699 136.264 31.937 135.279 31.937C134.099 31.937 133.427 32.4595 133.427 33.3403H132.203C132.203 31.8176 133.457 30.8174 135.338 30.8174C137.145 30.8174 138.369 31.7728 138.369 33.7433V38.3264H137.175L137.025 37.1471C136.652 37.9831 135.652 38.5056 134.472 38.5056ZM134.876 37.4158C136.204 37.4158 137.01 36.5499 137.01 35.1765V34.7883L135.144 34.9376C133.905 35.0571 133.398 35.5348 133.398 36.2513C133.398 37.0276 133.965 37.4158 134.876 37.4158ZM139.76 34.4898C139.76 32.4296 141.088 30.8174 143.208 30.8174C144.388 30.8174 145.298 31.3548 145.761 32.2654L145.866 31.0264H147.12V38.0278C147.12 40.3268 145.701 41.7898 143.462 41.7898C141.477 41.7898 140.118 40.6702 139.849 38.8191H141.253C141.432 39.8939 142.238 40.5209 143.462 40.5209C144.836 40.5209 145.731 39.6252 145.731 38.2368V36.7738C145.254 37.6248 144.298 38.1323 143.149 38.1323C141.074 38.1323 139.76 36.535 139.76 34.4898ZM141.163 34.4599C141.163 35.8333 142.014 36.9082 143.387 36.9082C144.806 36.9082 145.672 35.8931 145.672 34.4599C145.672 33.0566 144.836 32.0415 143.402 32.0415C141.999 32.0415 141.163 33.1164 141.163 34.4599ZM154.615 38.3264L152.227 31.0264H153.675L154.884 34.8182C155.048 35.3556 155.197 35.908 155.332 36.5499C155.451 35.908 155.645 35.2959 155.809 34.8182L157.034 31.0264H158.467L159.676 34.8182C159.795 35.1765 160.034 36.0274 160.154 36.5499C160.273 35.9677 160.407 35.4601 160.616 34.8182L161.841 31.0264H163.304L160.811 38.3264H159.482L158.213 34.4151C157.974 33.6836 157.825 33.1164 157.75 32.7133C157.676 33.0716 157.541 33.5493 157.272 34.4301L156.004 38.3264H154.615ZM165.104 29.2946C164.596 29.2946 164.178 28.8766 164.178 28.3691C164.178 27.8466 164.596 27.4435 165.104 27.4435C165.611 27.4435 166.029 27.8466 166.029 28.3691C166.029 28.8766 165.611 29.2946 165.104 29.2946ZM164.417 38.3264V31.0264H165.82V38.3264H164.417ZM169.828 38.3264H168.425V32.2057H166.992V31.0264H168.425V28.7423H169.828V31.0264H171.261V32.2057H169.828V38.3264ZM173.834 38.3115H172.431V27.339H173.834V32.146C174.297 31.3548 175.178 30.8174 176.312 30.8174C178.178 30.8174 179.074 31.9967 179.074 33.8628V38.3264H177.671V34.1763C177.671 32.6984 176.969 32.1012 175.924 32.1012C174.566 32.1012 173.834 33.0865 173.834 34.3405V38.3115ZM185.607 38.3264H184.085L188.026 27.5331H189.653L193.609 38.3264H192.071L191.101 35.6393H186.563L185.607 38.3264ZM188.653 29.8619L187.011 34.3703H190.668L189.011 29.8619C188.936 29.6529 188.862 29.3991 188.832 29.2349C188.802 29.3842 188.727 29.638 188.653 29.8619ZM196.417 27.5331V38.3264H194.954V27.5331H196.417Z" fill="#42489E"/>
<g filter="url(#filter0_d_949_18574)">
<path d="M11.9999 77.7107C11.9999 73.2924 15.5816 69.7107 19.9999 69.7107H203C207.418 69.7107 211 73.2924 211 77.7107V101.865C211 106.283 207.418 109.865 203 109.865H19.9999C15.5816 109.865 11.9999 106.283 11.9999 101.865V77.7107Z" fill="#42489E"/>
<path opacity="0.3" d="M75.3421 89.7877C75.3421 85.1676 71.5968 81.4222 66.9767 81.4222C62.3565 81.4222 58.6112 85.1676 58.6112 89.7877C58.6112 94.4078 62.3565 98.1531 66.9767 98.1531C71.5968 98.1531 75.3421 94.4078 75.3421 89.7877Z" fill="white"/>
<path d="M58.6112 89.7876C58.6112 94.4077 62.3565 98.153 66.9767 98.153C71.5968 98.153 75.3421 94.4077 75.3421 89.7876C75.3421 85.1675 71.5968 81.4221 66.9767 81.4221" stroke="white" stroke-width="1.50578" stroke-linecap="round"/>
<path d="M60.8269 83.9978C60.9426 83.8751 61.0619 83.7558 61.1846 83.64M63.5865 82.0324C63.7383 81.9642 63.8925 81.9001 64.0488 81.8405M59.2234 86.3929C59.1544 86.5462 59.0897 86.7019 59.0295 86.8598" stroke="white" stroke-width="1.50578" stroke-linecap="round" stroke-linejoin="round"/>
<path d="M66.9767 86.4414V93.1338M70.3229 89.7876L63.6305 89.7876" stroke="white" stroke-width="1.50578" stroke-linecap="round" stroke-linejoin="round"/>
<path d="M94.6583 87.3905H93.1012C93.0413 87.0578 92.9299 86.765 92.7668 86.5121C92.6038 86.2593 92.4042 86.0447 92.1679 85.8683C91.9317 85.692 91.6672 85.5589 91.3744 85.4691C91.0849 85.3792 90.7772 85.3343 90.4511 85.3343C89.8622 85.3343 89.3349 85.4824 88.8691 85.7785C88.4066 86.0746 88.0406 86.5088 87.7711 87.0811C87.5049 87.6533 87.3718 88.3521 87.3718 89.1772C87.3718 90.009 87.5049 90.711 87.7711 91.2833C88.0406 91.8556 88.4082 92.2881 88.874 92.5809C89.3399 92.8737 89.8639 93.0201 90.4461 93.0201C90.7689 93.0201 91.075 92.9768 91.3644 92.8903C91.6572 92.8005 91.9217 92.6691 92.158 92.496C92.3942 92.323 92.5938 92.1118 92.7569 91.8622C92.9232 91.6094 93.038 91.3199 93.1012 90.9938L94.6583 90.9988C94.5751 91.5012 94.4138 91.9637 94.1742 92.3862C93.938 92.8055 93.6336 93.1681 93.2609 93.4742C92.8916 93.777 92.4691 94.0116 91.9933 94.1779C91.5175 94.3443 90.9984 94.4275 90.4362 94.4275C89.5511 94.4275 88.7626 94.2178 88.0705 93.7986C87.3785 93.3761 86.8328 92.7722 86.4336 91.987C86.0376 91.2018 85.8397 90.2652 85.8397 89.1772C85.8397 88.0859 86.0393 87.1493 86.4386 86.3674C86.8378 85.5822 87.3835 84.98 88.0755 84.5607C88.7676 84.1382 89.5545 83.9269 90.4362 83.9269C90.9785 83.9269 91.4842 84.0051 91.9533 84.1615C92.4258 84.3145 92.85 84.5408 93.226 84.8402C93.602 85.1363 93.913 85.499 94.1593 85.9282C94.4055 86.3541 94.5718 86.8415 94.6583 87.3905ZM96.2996 94.2877V86.6219H97.7419V87.8397H97.8217C97.9615 87.4271 98.2077 87.1027 98.5604 86.8665C98.9164 86.6269 99.319 86.5071 99.7681 86.5071C99.8613 86.5071 99.9711 86.5105 100.098 86.5171C100.227 86.5238 100.329 86.5321 100.402 86.5421V87.9694C100.342 87.9528 100.236 87.9345 100.083 87.9145C99.9295 87.8912 99.7764 87.8796 99.6234 87.8796C99.2707 87.8796 98.9563 87.9545 98.6801 88.1042C98.4073 88.2506 98.191 88.4552 98.0313 88.718C97.8716 88.9776 97.7918 89.2737 97.7918 89.6064V94.2877H96.2996ZM104.638 94.4424C103.883 94.4424 103.233 94.2811 102.687 93.9583C102.145 93.6323 101.725 93.1748 101.429 92.5859C101.137 91.9936 100.99 91.2999 100.99 90.5047C100.99 89.7195 101.137 89.0275 101.429 88.4286C101.725 87.8297 102.138 87.3622 102.667 87.0262C103.199 86.6901 103.822 86.5221 104.534 86.5221C104.966 86.5221 105.385 86.5936 105.791 86.7367C106.197 86.8798 106.561 87.1044 106.884 87.4105C107.207 87.7166 107.461 88.1142 107.648 88.6033C107.834 89.089 107.927 89.6796 107.927 90.375V90.904H101.834V89.7861H106.465C106.465 89.3935 106.385 89.0458 106.225 88.743C106.066 88.4369 105.841 88.1957 105.552 88.0193C105.266 87.843 104.929 87.7548 104.544 87.7548C104.124 87.7548 103.758 87.858 103.446 88.0643C103.136 88.2672 102.897 88.5334 102.727 88.8628C102.561 89.1888 102.477 89.5432 102.477 89.9258V90.7992C102.477 91.3116 102.567 91.7474 102.747 92.1068C102.93 92.4661 103.184 92.7406 103.51 92.9302C103.837 93.1166 104.217 93.2097 104.653 93.2097C104.936 93.2097 105.194 93.1698 105.427 93.0899C105.66 93.0068 105.861 92.8837 106.031 92.7206C106.2 92.5576 106.33 92.3563 106.42 92.1167L107.832 92.3713C107.719 92.7872 107.516 93.1515 107.224 93.4642C106.934 93.7737 106.57 94.0149 106.131 94.1879C105.695 94.3576 105.197 94.4424 104.638 94.4424ZM111.729 94.4574C111.244 94.4574 110.805 94.3676 110.412 94.1879C110.019 94.0049 109.708 93.7404 109.479 93.3944C109.252 93.0484 109.139 92.6241 109.139 92.1217C109.139 91.6892 109.222 91.3332 109.389 91.0537C109.555 90.7742 109.78 90.553 110.063 90.3899C110.345 90.2269 110.661 90.1038 111.011 90.0206C111.36 89.9374 111.716 89.8742 112.079 89.831C112.538 89.7777 112.911 89.7345 113.197 89.7012C113.483 89.6646 113.691 89.6064 113.821 89.5265C113.95 89.4467 114.015 89.3169 114.015 89.1373V89.1023C114.015 88.6665 113.892 88.3288 113.646 88.0892C113.403 87.8497 113.04 87.7299 112.558 87.7299C112.056 87.7299 111.66 87.8413 111.37 88.0643C111.084 88.2838 110.886 88.5284 110.776 88.7979L109.374 88.4785C109.54 88.0127 109.783 87.6367 110.103 87.3506C110.425 87.0611 110.796 86.8515 111.215 86.7217C111.635 86.5887 112.076 86.5221 112.538 86.5221C112.844 86.5221 113.168 86.5587 113.511 86.6319C113.857 86.7018 114.18 86.8315 114.479 87.0212C114.782 87.2108 115.03 87.482 115.223 87.8347C115.416 88.184 115.512 88.6382 115.512 89.1972V94.2877H114.055V93.2397H113.995C113.899 93.4326 113.754 93.6223 113.561 93.8086C113.368 93.9949 113.12 94.1496 112.817 94.2727C112.515 94.3959 112.152 94.4574 111.729 94.4574ZM112.054 93.2596C112.466 93.2596 112.819 93.1781 113.112 93.0151C113.408 92.852 113.633 92.6391 113.786 92.3763C113.942 92.1101 114.02 91.8256 114.02 91.5228V90.5347C113.967 90.5879 113.864 90.6378 113.711 90.6844C113.561 90.7277 113.39 90.7659 113.197 90.7992C113.004 90.8291 112.816 90.8574 112.633 90.884C112.45 90.9073 112.297 90.9273 112.174 90.9439C111.884 90.9805 111.62 91.0421 111.38 91.1286C111.144 91.2151 110.954 91.3399 110.811 91.5029C110.671 91.6626 110.602 91.8755 110.602 92.1417C110.602 92.511 110.738 92.7905 111.011 92.9801C111.284 93.1665 111.631 93.2596 112.054 93.2596ZM120.994 86.6219V87.8197H116.807V86.6219H120.994ZM117.93 84.7853H119.422V92.0369C119.422 92.3264 119.465 92.5443 119.552 92.6907C119.638 92.8337 119.75 92.9319 119.886 92.9851C120.026 93.035 120.177 93.06 120.34 93.06C120.46 93.06 120.565 93.0517 120.655 93.035C120.745 93.0184 120.814 93.0051 120.864 92.9951L121.134 94.2278C121.047 94.2611 120.924 94.2944 120.765 94.3276C120.605 94.3642 120.405 94.3842 120.166 94.3875C119.773 94.3942 119.407 94.3243 119.068 94.1779C118.728 94.0315 118.454 93.8053 118.244 93.4992C118.035 93.1931 117.93 92.8088 117.93 92.3463V84.7853ZM125.782 94.4424C125.027 94.4424 124.376 94.2811 123.831 93.9583C123.288 93.6323 122.869 93.1748 122.573 92.5859C122.28 91.9936 122.134 91.2999 122.134 90.5047C122.134 89.7195 122.28 89.0275 122.573 88.4286C122.869 87.8297 123.282 87.3622 123.811 87.0262C124.343 86.6901 124.965 86.5221 125.677 86.5221C126.11 86.5221 126.529 86.5936 126.935 86.7367C127.341 86.8798 127.705 87.1044 128.028 87.4105C128.351 87.7166 128.605 88.1142 128.791 88.6033C128.978 89.089 129.071 89.6796 129.071 90.375V90.904H122.977V89.7861H127.609C127.609 89.3935 127.529 89.0458 127.369 88.743C127.209 88.4369 126.985 88.1957 126.695 88.0193C126.409 87.843 126.073 87.7548 125.687 87.7548C125.268 87.7548 124.902 87.858 124.589 88.0643C124.28 88.2672 124.04 88.5334 123.871 88.8628C123.704 89.1888 123.621 89.5432 123.621 89.9258V90.7992C123.621 91.3116 123.711 91.7474 123.89 92.1068C124.073 92.4661 124.328 92.7406 124.654 92.9302C124.98 93.1166 125.361 93.2097 125.797 93.2097C126.08 93.2097 126.338 93.1698 126.571 93.0899C126.803 93.0068 127.005 92.8837 127.174 92.7206C127.344 92.5576 127.474 92.3563 127.564 92.1167L128.976 92.3713C128.863 92.7872 128.66 93.1515 128.367 93.4642C128.078 93.7737 127.713 94.0149 127.274 94.1879C126.838 94.3576 126.341 94.4424 125.782 94.4424ZM134.397 94.2877V84.0667H140.735V85.3942H135.939V88.5084H140.281V89.831H135.939V94.2877H134.397ZM143.92 84.0667V94.2877H142.428V84.0667H143.92ZM148.074 94.4574C147.588 94.4574 147.149 94.3676 146.756 94.1879C146.364 94.0049 146.053 93.7404 145.823 93.3944C145.597 93.0484 145.484 92.6241 145.484 92.1217C145.484 91.6892 145.567 91.3332 145.733 91.0537C145.9 90.7742 146.124 90.553 146.407 90.3899C146.69 90.2269 147.006 90.1038 147.355 90.0206C147.705 89.9374 148.061 89.8742 148.423 89.831C148.883 89.7777 149.255 89.7345 149.541 89.7012C149.827 89.6646 150.035 89.6064 150.165 89.5265C150.295 89.4467 150.36 89.3169 150.36 89.1373V89.1023C150.36 88.6665 150.237 88.3288 149.99 88.0892C149.748 87.8497 149.385 87.7299 148.902 87.7299C148.4 87.7299 148.004 87.8413 147.715 88.0643C147.429 88.2838 147.231 88.5284 147.121 88.7979L145.718 88.4785C145.885 88.0127 146.128 87.6367 146.447 87.3506C146.77 87.0611 147.141 86.8515 147.56 86.7217C147.979 86.5887 148.42 86.5221 148.883 86.5221C149.189 86.5221 149.513 86.5587 149.856 86.6319C150.202 86.7018 150.524 86.8315 150.824 87.0212C151.127 87.2108 151.375 87.482 151.568 87.8347C151.761 88.184 151.857 88.6382 151.857 89.1972V94.2877H150.4V93.2397H150.34C150.243 93.4326 150.099 93.6223 149.906 93.8086C149.713 93.9949 149.465 94.1496 149.162 94.2727C148.859 94.3959 148.497 94.4574 148.074 94.4574ZM148.398 93.2596C148.811 93.2596 149.164 93.1781 149.456 93.0151C149.753 92.852 149.977 92.6391 150.13 92.3763C150.287 92.1101 150.365 91.8256 150.365 91.5228V90.5347C150.312 90.5879 150.208 90.6378 150.055 90.6844C149.906 90.7277 149.734 90.7659 149.541 90.7992C149.348 90.8291 149.16 90.8574 148.977 90.884C148.794 90.9073 148.641 90.9273 148.518 90.9439C148.229 90.9805 147.964 91.0421 147.725 91.1286C147.488 91.2151 147.299 91.3399 147.156 91.5029C147.016 91.6626 146.946 91.8755 146.946 92.1417C146.946 92.511 147.083 92.7905 147.355 92.9801C147.628 93.1665 147.976 93.2596 148.398 93.2596ZM156.974 97.3221C156.365 97.3221 155.841 97.2422 155.402 97.0825C154.966 96.9228 154.61 96.7116 154.334 96.4487C154.058 96.1859 153.852 95.8981 153.715 95.5853L154.998 95.0563C155.088 95.2027 155.208 95.3574 155.357 95.5204C155.51 95.6868 155.717 95.8282 155.976 95.9446C156.239 96.0611 156.577 96.1193 156.989 96.1193C157.555 96.1193 158.022 95.9812 158.392 95.7051C158.761 95.4323 158.946 94.9964 158.946 94.3975V92.8903H158.851C158.761 93.0533 158.631 93.2347 158.462 93.4343C158.295 93.6339 158.066 93.8069 157.773 93.9533C157.48 94.0997 157.099 94.1729 156.63 94.1729C156.024 94.1729 155.479 94.0315 154.993 93.7487C154.511 93.4626 154.128 93.0417 153.845 92.4861C153.566 91.9271 153.426 91.24 153.426 90.4249C153.426 89.6097 153.564 88.911 153.84 88.3288C154.12 87.7465 154.502 87.3007 154.988 86.9912C155.474 86.6785 156.024 86.5221 156.64 86.5221C157.116 86.5221 157.5 86.602 157.793 86.7617C158.086 86.918 158.313 87.101 158.476 87.3107C158.643 87.5203 158.771 87.7049 158.861 87.8646H158.971V86.6219H160.433V94.4574C160.433 95.1162 160.28 95.6568 159.974 96.0794C159.668 96.5019 159.253 96.8147 158.731 97.0177C158.212 97.2206 157.626 97.3221 156.974 97.3221ZM156.959 92.9352C157.389 92.9352 157.751 92.8354 158.047 92.6358C158.347 92.4328 158.573 92.1434 158.726 91.7674C158.882 91.3881 158.961 90.9339 158.961 90.4049C158.961 89.8892 158.884 89.435 158.731 89.0424C158.578 88.6498 158.353 88.3437 158.057 88.1241C157.761 87.9012 157.395 87.7898 156.959 87.7898C156.51 87.7898 156.136 87.9062 155.836 88.1391C155.537 88.3687 155.311 88.6814 155.158 89.0774C155.008 89.4733 154.933 89.9158 154.933 90.4049C154.933 90.9073 155.01 91.3482 155.163 91.7275C155.316 92.1068 155.542 92.4029 155.841 92.6158C156.144 92.8288 156.517 92.9352 156.959 92.9352Z" fill="white"/>
</g>
<defs>
<filter id="filter0_d_949_18574" x="9.99988" y="68.7107" width="203" height="44.1542" filterUnits="userSpaceOnUse" color-interpolation-filters="sRGB">
<feFlood flood-opacity="0" result="BackgroundImageFix"/>
<feColorMatrix in="SourceAlpha" type="matrix" values="0 0 0 0 0 0 0 0 0 0 0 0 0 0 0 0 0 0 127 0" result="hardAlpha"/>
<feOffset dy="1"/>
<feGaussianBlur stdDeviation="1"/>
<feComposite in2="hardAlpha" operator="out"/>
<feColorMatrix type="matrix" values="0 0 0 0 0.0392157 0 0 0 0 0.0509804 0 0 0 0 0.0784314 0 0 0 0.03 0"/>
<feBlend mode="normal" in2="BackgroundImageFix" result="effect1_dropShadow_949_18574"/>
<feBlend mode="normal" in="SourceGraphic" in2="effect1_dropShadow_949_18574" result="shape"/>
</filter>
<linearGradient id="paint0_linear_949_18574" x1="111.5" y1="0" x2="111.5" y2="121.865" gradientUnits="userSpaceOnUse">
<stop stop-color="#42389E"/>
<stop offset="1" stop-color="#848AE4"/>
</linearGradient>
</defs>
</svg>
